<mxfile host="app.diagrams.net" agent="Mozilla/5.0 (Macintosh; Intel Mac OS X 10_15_7) AppleWebKit/537.36 (KHTML, like Gecko) Chrome/131.0.0.0 Safari/537.36" version="26.0.5">
  <diagram name="Page-1" id="c7558073-3199-34d8-9f00-42111426c3f3">
    <mxGraphModel dx="3591" dy="1581" grid="1" gridSize="10" guides="1" tooltips="1" connect="1" arrows="1" fold="1" page="1" pageScale="1" pageWidth="826" pageHeight="1169" background="none" math="1" shadow="0">
      <root>
        <mxCell id="0" />
        <mxCell id="1" parent="0" />
        <mxCell id="2" value="&lt;p style=&quot;margin: 0px; margin-top: 4px; text-align: center; text-decoration: underline;&quot;&gt;&lt;strong&gt;Process 1&lt;br /&gt;&lt;/strong&gt;&lt;/p&gt;&lt;hr /&gt;&lt;p style=&quot;margin: 0px; margin-left: 8px;&quot;&gt;System Study&lt;/p&gt;&lt;p style=&quot;margin: 0px; margin-left: 8px;&quot;&gt;Preparation&lt;/p&gt;" style="verticalAlign=middle;align=center;overflow=fill;fontSize=12;fontFamily=Helvetica;html=1;rounded=1;fontStyle=1;strokeWidth=3;fillColor=#E6FFCC;" parent="1" vertex="1">
          <mxGeometry x="236" y="236" width="110" height="90" as="geometry" />
        </mxCell>
        <mxCell id="3" value="Engineering" style="whiteSpace=wrap;align=center;verticalAlign=middle;fontStyle=1;strokeWidth=3;fillColor=#FFFFCC;" parent="1" vertex="1">
          <mxGeometry x="246" y="126" width="90" height="60" as="geometry" />
        </mxCell>
        <mxCell id="4" value="Investors" style="whiteSpace=wrap;align=center;verticalAlign=middle;fontStyle=1;strokeWidth=3;fillColor=#FFFFCC;" parent="1" vertex="1">
          <mxGeometry x="40" y="251" width="90" height="60" as="geometry" />
        </mxCell>
        <mxCell id="5" value="ON-DEMAND SYSTEM DEVELOPMENT" style="shape=process;whiteSpace=wrap;align=center;verticalAlign=middle;size=0.0475;fontStyle=1;strokeWidth=3;fillColor=#FFCCCC;" parent="1" vertex="1">
          <mxGeometry x="200.99999999999991" y="391" width="400" height="50" as="geometry" />
        </mxCell>
        <mxCell id="6" value="&lt;p style=&quot;margin: 0px; margin-top: 4px; text-align: center; text-decoration: underline;&quot;&gt;&lt;strong&gt;Process 2&lt;br /&gt;&lt;/strong&gt;&lt;/p&gt;&lt;hr /&gt;&lt;p style=&quot;margin: 0px; margin-left: 8px;&quot;&gt;System Analysis&lt;/p&gt;" style="verticalAlign=middle;align=center;overflow=fill;fontSize=12;fontFamily=Helvetica;html=1;rounded=1;fontStyle=1;strokeWidth=3;fillColor=#E6FFCC;" parent="1" vertex="1">
          <mxGeometry x="390" y="146" width="110" height="90" as="geometry" />
        </mxCell>
        <mxCell id="7" value="&lt;p style=&quot;margin: 0px; margin-top: 4px; text-align: center; text-decoration: underline;&quot;&gt;&lt;strong&gt;&lt;strong&gt;Process&lt;/strong&gt; 3&lt;br /&gt;&lt;/strong&gt;&lt;/p&gt;&lt;hr /&gt;&lt;p style=&quot;margin: 0px; margin-left: 8px;&quot;&gt;List Possible&lt;/p&gt;&lt;p style=&quot;margin: 0px; margin-left: 8px;&quot;&gt;System Solutions&lt;/p&gt;" style="verticalAlign=middle;align=center;overflow=fill;fontSize=12;fontFamily=Helvetica;html=1;rounded=1;fontStyle=1;strokeWidth=3;fillColor=#E6FFCC;" parent="1" vertex="1">
          <mxGeometry x="681" y="371" width="110" height="90" as="geometry" />
        </mxCell>
        <mxCell id="8" value="&lt;p style=&quot;margin: 0px; margin-top: 4px; text-align: center; text-decoration: underline;&quot;&gt;&lt;strong&gt;&lt;strong&gt;Process&lt;/strong&gt; 4&lt;br /&gt;&lt;/strong&gt;&lt;/p&gt;&lt;hr /&gt;&lt;p style=&quot;margin: 0px; margin-left: 8px;&quot;&gt;Detail Chosen&lt;/p&gt;&lt;p style=&quot;margin: 0px; margin-left: 8px;&quot;&gt;Solution&lt;/p&gt;" style="verticalAlign=middle;align=center;overflow=fill;fontSize=12;fontFamily=Helvetica;html=1;rounded=1;fontStyle=1;strokeWidth=3;fillColor=#E6FFCC;" parent="1" vertex="1">
          <mxGeometry x="560" y="241" width="110" height="90" as="geometry" />
        </mxCell>
        <mxCell id="9" value="&lt;p style=&quot;margin: 0px; margin-top: 4px; text-align: center; text-decoration: underline;&quot;&gt;&lt;strong&gt;&lt;strong&gt;Process&lt;/strong&gt; 5&lt;br /&gt;&lt;/strong&gt;&lt;/p&gt;&lt;hr /&gt;&lt;p style=&quot;margin: 0px; margin-left: 8px;&quot;&gt;New System&lt;/p&gt;&lt;p style=&quot;margin: 0px; margin-left: 8px;&quot;&gt;Design&lt;/p&gt;" style="verticalAlign=middle;align=center;overflow=fill;fontSize=12;fontFamily=Helvetica;html=1;rounded=1;fontStyle=1;strokeWidth=3;fillColor=#E6FFCC;" parent="1" vertex="1">
          <mxGeometry x="540" y="510" width="110" height="90" as="geometry" />
        </mxCell>
        <mxCell id="10" value="&lt;p style=&quot;margin: 0px; margin-top: 4px; text-align: center; text-decoration: underline;&quot;&gt;&lt;strong&gt;&lt;strong&gt;Process&lt;/strong&gt; 6&lt;br /&gt;&lt;/strong&gt;&lt;/p&gt;&lt;hr /&gt;&lt;p style=&quot;margin: 0px; margin-left: 8px;&quot;&gt;New&lt;/p&gt;&lt;p style=&quot;margin: 0px; margin-left: 8px;&quot;&gt;System&lt;/p&gt;&lt;p style=&quot;margin: 0px; margin-left: 8px;&quot;&gt;Construction&lt;/p&gt;" style="verticalAlign=middle;align=center;overflow=fill;fontSize=12;fontFamily=Helvetica;html=1;rounded=1;fontStyle=1;strokeWidth=3;fillColor=#E6FFCC;" parent="1" vertex="1">
          <mxGeometry x="188.49999999999991" y="510" width="110" height="90" as="geometry" />
        </mxCell>
        <mxCell id="12" value="Management" style="whiteSpace=wrap;align=center;verticalAlign=middle;fontStyle=1;strokeWidth=3;fillColor=#FFFFCC;" parent="1" vertex="1">
          <mxGeometry x="691" y="60.00000000000002" width="90" height="60" as="geometry" />
        </mxCell>
        <mxCell id="13" value="Management" style="whiteSpace=wrap;align=center;verticalAlign=middle;fontStyle=1;strokeWidth=3;fillColor=#FFFFCC;" parent="1" vertex="1">
          <mxGeometry x="353.50000000000006" y="650" width="90" height="60" as="geometry" />
        </mxCell>
        <mxCell id="14" value="Engineering" style="whiteSpace=wrap;align=center;verticalAlign=middle;fontStyle=1;strokeWidth=3;fillColor=#FFFFCC;" parent="1" vertex="1">
          <mxGeometry x="34.99999999999997" y="524.9999999999999" width="90" height="60" as="geometry" />
        </mxCell>
        <mxCell id="15" value="Vendors" style="whiteSpace=wrap;align=center;verticalAlign=middle;fontStyle=1;strokeWidth=3;fillColor=#FFFFCC;" parent="1" vertex="1">
          <mxGeometry x="549.9999999999999" y="650" width="90" height="60" as="geometry" />
        </mxCell>
        <mxCell id="36" value="" style="edgeStyle=none;noEdgeStyle=1;strokeColor=#990000;strokeWidth=2;" parent="1" source="3" target="2" edge="1">
          <mxGeometry width="100" height="100" relative="1" as="geometry">
            <mxPoint x="20" y="250" as="sourcePoint" />
            <mxPoint x="120" y="150" as="targetPoint" />
          </mxGeometry>
        </mxCell>
        <mxCell id="37" value="" style="edgeStyle=none;noEdgeStyle=1;strokeColor=#990000;strokeWidth=2;" parent="1" source="4" target="2" edge="1">
          <mxGeometry width="100" height="100" relative="1" as="geometry">
            <mxPoint x="280" y="190" as="sourcePoint" />
            <mxPoint x="380" y="90" as="targetPoint" />
          </mxGeometry>
        </mxCell>
        <mxCell id="11" value="&lt;p style=&quot;margin: 0px; margin-top: 4px; text-align: center; text-decoration: underline;&quot;&gt;&lt;strong&gt;&lt;strong&gt;Process&lt;/strong&gt; 7&lt;br /&gt;&lt;/strong&gt;&lt;/p&gt;&lt;hr /&gt;&lt;p style=&quot;margin: 0px; margin-left: 8px;&quot;&gt;New System&lt;/p&gt;&lt;p style=&quot;margin: 0px; margin-left: 8px;&quot;&gt;Startup and&lt;/p&gt;&lt;p style=&quot;margin: 0px; margin-left: 8px;&quot;&gt;Testing&lt;/p&gt;" style="verticalAlign=middle;align=center;overflow=fill;fontSize=12;fontFamily=Helvetica;html=1;rounded=1;fontStyle=1;strokeWidth=3;fillColor=#E6FFCC;" parent="1" vertex="1">
          <mxGeometry x="343.49999999999994" y="510" width="110" height="90" as="geometry" />
        </mxCell>
        <mxCell id="51" value="" style="endArrow=none;noEdgeStyle=1;strokeColor=#990000;strokeWidth=2;" parent="1" source="9" target="11" edge="1">
          <mxGeometry relative="1" as="geometry">
            <mxPoint x="205.00819672131135" y="481" as="sourcePoint" />
            <mxPoint x="400.32786885245895" y="650" as="targetPoint" />
          </mxGeometry>
        </mxCell>
        <mxCell id="52" value="Desired &#xa;functionality" style="text;spacingTop=-5;align=center;" parent="1" vertex="1">
          <mxGeometry x="165" y="251" width="30" height="20" as="geometry" />
        </mxCell>
        <mxCell id="53" value="Desired &#xa;functionality" style="text;spacingTop=-5;align=center;" parent="1" vertex="1">
          <mxGeometry x="241" y="196" width="30" height="20" as="geometry" />
        </mxCell>
        <mxCell id="54" value="Documentation&#xa;from similar projects" style="text;spacingTop=-5;align=center;" parent="1" vertex="1">
          <mxGeometry x="186" y="341" width="30" height="20" as="geometry" />
        </mxCell>
        <mxCell id="55" value="" style="edgeStyle=elbowEdgeStyle;elbow=horizontal;strokeColor=#990000;strokeWidth=2;" parent="1" source="5" target="2" edge="1">
          <mxGeometry width="100" height="100" relative="1" as="geometry">
            <mxPoint x="50" y="530" as="sourcePoint" />
            <mxPoint x="150" y="430" as="targetPoint" />
            <Array as="points">
              <mxPoint x="260" y="370" />
            </Array>
          </mxGeometry>
        </mxCell>
        <mxCell id="56" value="" style="edgeStyle=elbowEdgeStyle;elbow=horizontal;strokeColor=#990000;strokeWidth=2;" parent="1" source="2" target="5" edge="1">
          <mxGeometry width="100" height="100" relative="1" as="geometry">
            <mxPoint x="50" y="500" as="sourcePoint" />
            <mxPoint x="150" y="400" as="targetPoint" />
            <Array as="points">
              <mxPoint x="280" y="360" />
            </Array>
          </mxGeometry>
        </mxCell>
        <mxCell id="57" value="Elaborate&#xa;cost/benefit&#xa;ratio" style="text;spacingTop=-5;align=center;" parent="1" vertex="1">
          <mxGeometry x="306" y="341" width="30" height="20" as="geometry" />
        </mxCell>
        <mxCell id="58" value="" style="edgeStyle=elbowEdgeStyle;elbow=horizontal;strokeColor=#990000;strokeWidth=2;" parent="1" source="5" target="6" edge="1">
          <mxGeometry width="100" height="100" relative="1" as="geometry">
            <mxPoint x="380" y="370" as="sourcePoint" />
            <mxPoint x="480" y="270" as="targetPoint" />
            <Array as="points">
              <mxPoint x="440" y="310" />
            </Array>
          </mxGeometry>
        </mxCell>
        <mxCell id="59" value="" style="edgeStyle=elbowEdgeStyle;elbow=horizontal;strokeColor=#990000;strokeWidth=2;" parent="1" source="6" target="5" edge="1">
          <mxGeometry width="100" height="100" relative="1" as="geometry">
            <mxPoint x="350" y="370" as="sourcePoint" />
            <mxPoint x="450" y="270" as="targetPoint" />
            <Array as="points">
              <mxPoint x="460" y="320" />
            </Array>
          </mxGeometry>
        </mxCell>
        <mxCell id="60" value="Existing&#xa;documentation" style="text;spacingTop=-5;align=center;" parent="1" vertex="1">
          <mxGeometry x="380.0000000000001" y="280.99999999999983" width="30" height="20" as="geometry" />
        </mxCell>
        <mxCell id="61" value="Necessary&#xa;resources" style="text;spacingTop=-5;align=center;" parent="1" vertex="1">
          <mxGeometry x="481.0000000000002" y="251.00000000000006" width="30" height="20" as="geometry" />
        </mxCell>
        <mxCell id="62" value="Progress&#xa;reports" style="text;spacingTop=-5;align=center;" parent="1" vertex="1">
          <mxGeometry x="545.0000000000001" y="100.00000000000003" width="30" height="20" as="geometry" />
        </mxCell>
        <mxCell id="63" value="Progress&#xa;reports" style="text;spacingTop=-5;align=center;" parent="1" vertex="1">
          <mxGeometry x="640" y="146.0000000000001" width="30" height="20" as="geometry" />
        </mxCell>
        <mxCell id="64" value="Progress&#xa;reports" style="text;spacingTop=-5;align=center;" parent="1" vertex="1">
          <mxGeometry x="751.0000000000001" y="261.0000000000001" width="30" height="20" as="geometry" />
        </mxCell>
        <mxCell id="65" value="" style="edgeStyle=elbowEdgeStyle;elbow=horizontal;strokeColor=#990000;strokeWidth=2;" parent="1" source="6" target="12" edge="1">
          <mxGeometry width="100" height="100" relative="1" as="geometry">
            <mxPoint x="260" y="180.0000000000001" as="sourcePoint" />
            <mxPoint x="360" y="80.00000000000011" as="targetPoint" />
            <Array as="points">
              <mxPoint x="445" y="140" />
            </Array>
          </mxGeometry>
        </mxCell>
        <mxCell id="66" value="" style="edgeStyle=elbowEdgeStyle;elbow=vertical;entryX=0.25;entryY=1;strokeColor=#990000;strokeWidth=2;" parent="1" source="8" target="12" edge="1">
          <mxGeometry width="100" height="100" relative="1" as="geometry">
            <mxPoint x="530" y="250" as="sourcePoint" />
            <mxPoint x="630" y="150" as="targetPoint" />
          </mxGeometry>
        </mxCell>
        <mxCell id="67" value="" style="edgeStyle=elbowEdgeStyle;elbow=horizontal;strokeColor=#990000;strokeWidth=2;" parent="1" source="7" target="12" edge="1">
          <mxGeometry width="100" height="100" relative="1" as="geometry">
            <mxPoint x="660.0000000000002" y="360" as="sourcePoint" />
            <mxPoint x="760.0000000000002" y="260" as="targetPoint" />
          </mxGeometry>
        </mxCell>
        <mxCell id="68" value="" style="edgeStyle=elbowEdgeStyle;elbow=horizontal;strokeColor=#990000;strokeWidth=2;" parent="1" source="8" target="5" edge="1">
          <mxGeometry width="100" height="100" relative="1" as="geometry">
            <mxPoint x="570" y="380" as="sourcePoint" />
            <mxPoint x="510" y="250" as="targetPoint" />
            <Array as="points">
              <mxPoint x="570" y="360" />
            </Array>
          </mxGeometry>
        </mxCell>
        <mxCell id="69" value="" style="edgeStyle=segmentEdgeStyle;strokeColor=#990000;strokeWidth=2;" parent="1" source="5" target="8" edge="1">
          <mxGeometry width="100" height="100" relative="1" as="geometry">
            <mxPoint x="340" y="360" as="sourcePoint" />
            <mxPoint x="440" y="260" as="targetPoint" />
            <Array as="points">
              <mxPoint x="520" y="286" />
            </Array>
          </mxGeometry>
        </mxCell>
        <mxCell id="70" value="Existing&#xa;Models" style="text;spacingTop=-5;align=center;" parent="1" vertex="1">
          <mxGeometry x="530.0000000000002" y="340.9999999999999" width="30" height="20" as="geometry" />
        </mxCell>
        <mxCell id="71" value="Equipment&#xa;specification" style="text;spacingTop=-5;align=center;" parent="1" vertex="1">
          <mxGeometry x="615" y="341" width="30" height="20" as="geometry" />
        </mxCell>
        <mxCell id="72" value="" style="edgeStyle=elbowEdgeStyle;elbow=vertical;strokeColor=#990000;strokeWidth=2;" parent="1" source="5" target="7" edge="1">
          <mxGeometry width="100" height="100" relative="1" as="geometry">
            <mxPoint x="500" y="500" as="sourcePoint" />
            <mxPoint x="600" y="400" as="targetPoint" />
            <Array as="points">
              <mxPoint x="650" y="410" />
            </Array>
          </mxGeometry>
        </mxCell>
        <mxCell id="73" value="" style="edgeStyle=elbowEdgeStyle;elbow=vertical;strokeColor=#990000;strokeWidth=2;" parent="1" source="7" target="5" edge="1">
          <mxGeometry width="100" height="100" relative="1" as="geometry">
            <mxPoint x="460" y="500" as="sourcePoint" />
            <mxPoint x="560" y="400" as="targetPoint" />
            <Array as="points">
              <mxPoint x="650" y="430" />
            </Array>
          </mxGeometry>
        </mxCell>
        <mxCell id="74" value="Resources" style="text;spacingTop=-5;align=center;" parent="1" vertex="1">
          <mxGeometry x="621" y="390.99999999999994" width="30" height="20" as="geometry" />
        </mxCell>
        <mxCell id="75" value="System &#xa;Advantages &#xa;and Limitations" style="text;spacingTop=-5;align=center;" parent="1" vertex="1">
          <mxGeometry x="630" y="431.0000000000001" width="30" height="20" as="geometry" />
        </mxCell>
        <mxCell id="76" value="" style="edgeStyle=elbowEdgeStyle;elbow=horizontal;strokeColor=#990000;strokeWidth=2;" parent="1" source="9" target="5" edge="1">
          <mxGeometry width="100" height="100" relative="1" as="geometry">
            <mxPoint x="420" y="580" as="sourcePoint" />
            <mxPoint x="520" y="480" as="targetPoint" />
            <Array as="points">
              <mxPoint x="570" y="470" />
            </Array>
          </mxGeometry>
        </mxCell>
        <mxCell id="77" value="" style="edgeStyle=elbowEdgeStyle;elbow=horizontal;strokeColor=#990000;strokeWidth=2;" parent="1" source="5" target="9" edge="1">
          <mxGeometry width="100" height="100" relative="1" as="geometry">
            <mxPoint x="400" y="590" as="sourcePoint" />
            <mxPoint x="500" y="490" as="targetPoint" />
            <Array as="points">
              <mxPoint x="560" y="480" />
            </Array>
          </mxGeometry>
        </mxCell>
        <mxCell id="78" value="" style="edgeStyle=elbowEdgeStyle;elbow=horizontal;strokeColor=#990000;strokeWidth=2;" parent="1" source="15" target="9" edge="1">
          <mxGeometry width="100" height="100" relative="1" as="geometry">
            <mxPoint x="430" y="700" as="sourcePoint" />
            <mxPoint x="530" y="600" as="targetPoint" />
          </mxGeometry>
        </mxCell>
        <mxCell id="79" value="Hardware and&#xa;Software specs" style="text;spacingTop=-5;align=center;" parent="1" vertex="1">
          <mxGeometry x="625" y="610" width="30" height="20" as="geometry" />
        </mxCell>
        <mxCell id="81" value="" style="edgeStyle=elbowEdgeStyle;elbow=horizontal;exitX=0;exitY=0.75;strokeColor=#990000;strokeWidth=2;" parent="1" source="9" target="13" edge="1">
          <mxGeometry width="100" height="100" relative="1" as="geometry">
            <mxPoint x="420" y="730" as="sourcePoint" />
            <mxPoint x="520" y="630" as="targetPoint" />
            <Array as="points">
              <mxPoint x="470" y="630" />
            </Array>
          </mxGeometry>
        </mxCell>
        <mxCell id="82" value="Progress&#xa;Reports" style="text;spacingTop=-5;align=center;" parent="1" vertex="1">
          <mxGeometry x="481.0000000000004" y="610.0000000000001" width="30" height="20" as="geometry" />
        </mxCell>
        <mxCell id="83" value="" style="edgeStyle=elbowEdgeStyle;elbow=horizontal;strokeColor=#990000;strokeWidth=2;" parent="1" source="11" target="13" edge="1">
          <mxGeometry width="100" height="100" relative="1" as="geometry">
            <mxPoint x="200" y="660.0000000000002" as="sourcePoint" />
            <mxPoint x="230.0000000000001" y="650" as="targetPoint" />
          </mxGeometry>
        </mxCell>
        <mxCell id="84" value="Progress&#xa;Reports" style="text;spacingTop=-5;align=center;" parent="1" vertex="1">
          <mxGeometry x="410.00000000000017" y="610.0000000000002" width="30" height="20" as="geometry" />
        </mxCell>
        <mxCell id="85" value="" style="edgeStyle=elbowEdgeStyle;elbow=horizontal;strokeColor=#990000;strokeWidth=2;" parent="1" source="10" target="13" edge="1">
          <mxGeometry width="100" height="100" relative="1" as="geometry">
            <mxPoint x="130.0000000000001" y="740" as="sourcePoint" />
            <mxPoint x="230.0000000000001" y="640" as="targetPoint" />
            <Array as="points">
              <mxPoint x="244" y="630" />
            </Array>
          </mxGeometry>
        </mxCell>
        <mxCell id="86" value="Progress&#xa;Reports" style="text;spacingTop=-5;align=center;" parent="1" vertex="1">
          <mxGeometry x="255.99999999999994" y="650.0000000000001" width="30" height="20" as="geometry" />
        </mxCell>
        <mxCell id="87" value="" style="edgeStyle=elbowEdgeStyle;elbow=vertical;strokeColor=#990000;strokeWidth=2;" parent="1" source="10" target="14" edge="1">
          <mxGeometry width="100" height="100" relative="1" as="geometry">
            <mxPoint x="70" y="740" as="sourcePoint" />
            <mxPoint x="170" y="640" as="targetPoint" />
          </mxGeometry>
        </mxCell>
        <mxCell id="88" value="" style="edgeStyle=elbowEdgeStyle;elbow=horizontal;strokeColor=#990000;strokeWidth=2;" parent="1" source="5" target="11" edge="1">
          <mxGeometry width="100" height="100" relative="1" as="geometry">
            <mxPoint x="50" y="500" as="sourcePoint" />
            <mxPoint x="150" y="400" as="targetPoint" />
            <Array as="points">
              <mxPoint x="390" y="470" />
            </Array>
          </mxGeometry>
        </mxCell>
        <mxCell id="89" value="" style="edgeStyle=elbowEdgeStyle;elbow=horizontal;strokeColor=#990000;strokeWidth=2;" parent="1" source="11" target="5" edge="1">
          <mxGeometry width="100" height="100" relative="1" as="geometry">
            <mxPoint x="59.999999999999886" y="510" as="sourcePoint" />
            <mxPoint x="159.9999999999999" y="410" as="targetPoint" />
            <Array as="points">
              <mxPoint x="410" y="470" />
            </Array>
          </mxGeometry>
        </mxCell>
        <mxCell id="90" value="Version&#xa;specs" style="text;spacingTop=-5;align=center;" parent="1" vertex="1">
          <mxGeometry x="261" y="461" width="30" height="20" as="geometry" />
        </mxCell>
        <mxCell id="91" value="Certificates,&#xa;system&#xa;libraries" style="text;spacingTop=-5;align=center;" parent="1" vertex="1">
          <mxGeometry x="180" y="461.0000000000002" width="30" height="20" as="geometry" />
        </mxCell>
        <mxCell id="92" value="" style="edgeStyle=elbowEdgeStyle;elbow=horizontal;strokeColor=#990000;strokeWidth=2;" parent="1" source="5" target="10" edge="1">
          <mxGeometry width="100" height="100" relative="1" as="geometry">
            <mxPoint x="30.000000000000114" y="500" as="sourcePoint" />
            <mxPoint x="130.0000000000001" y="400" as="targetPoint" />
            <Array as="points">
              <mxPoint x="250" y="470" />
            </Array>
          </mxGeometry>
        </mxCell>
        <mxCell id="93" value="" style="edgeStyle=elbowEdgeStyle;elbow=horizontal;strokeColor=#990000;strokeWidth=2;" parent="1" source="10" target="5" edge="1">
          <mxGeometry width="100" height="100" relative="1" as="geometry">
            <mxPoint x="40" y="510" as="sourcePoint" />
            <mxPoint x="140" y="410" as="targetPoint" />
            <Array as="points">
              <mxPoint x="230" y="470" />
            </Array>
          </mxGeometry>
        </mxCell>
        <mxCell id="94" value="System&#xa;specs" style="text;spacingTop=-5;align=center;" parent="1" vertex="1">
          <mxGeometry x="139.99999999999994" y="565.0000000000001" width="30" height="20" as="geometry" />
        </mxCell>
        <mxCell id="95" value="Design&#xa;specs" style="text;spacingTop=-5;align=center;" parent="1" vertex="1">
          <mxGeometry x="423.49999999999994" y="461.0000000000002" width="30" height="20" as="geometry" />
        </mxCell>
        <mxCell id="96" value="System&#xa;version" style="text;spacingTop=-5;align=center;" parent="1" vertex="1">
          <mxGeometry x="350.9999999999998" y="461" width="30" height="20" as="geometry" />
        </mxCell>
        <mxCell id="bWBGLmZI3f96l34fKNhn-177" value="" style="endArrow=classic;startArrow=classic;html=1;rounded=0;" parent="1" edge="1">
          <mxGeometry width="50" height="50" relative="1" as="geometry">
            <mxPoint x="1550" y="1840" as="sourcePoint" />
            <mxPoint x="1550" y="1150" as="targetPoint" />
          </mxGeometry>
        </mxCell>
        <mxCell id="bWBGLmZI3f96l34fKNhn-182" value="No" style="edgeLabel;html=1;align=center;verticalAlign=middle;resizable=0;points=[];" parent="bWBGLmZI3f96l34fKNhn-177" vertex="1" connectable="0">
          <mxGeometry x="-0.446" y="1" relative="1" as="geometry">
            <mxPoint as="offset" />
          </mxGeometry>
        </mxCell>
        <mxCell id="bWBGLmZI3f96l34fKNhn-198" value="Yes" style="edgeLabel;html=1;align=center;verticalAlign=middle;resizable=0;points=[];" parent="bWBGLmZI3f96l34fKNhn-177" vertex="1" connectable="0">
          <mxGeometry x="0.3134" y="-1" relative="1" as="geometry">
            <mxPoint as="offset" />
          </mxGeometry>
        </mxCell>
        <mxCell id="bWBGLmZI3f96l34fKNhn-225" value="PERK UP WITH A LATTE" style="shape=table;childLayout=tableLayout;startSize=40;collapsible=0;recursiveResize=0;expand=0;fillColor=none;fontStyle=1;" parent="1" vertex="1">
          <mxGeometry x="800" y="2010" width="670" height="300" as="geometry" />
        </mxCell>
        <mxCell id="bWBGLmZI3f96l34fKNhn-226" value="" style="edgeStyle=orthogonalEdgeStyle;rounded=0;orthogonalLoop=1;jettySize=auto;html=1;" parent="bWBGLmZI3f96l34fKNhn-225" source="bWBGLmZI3f96l34fKNhn-231" target="bWBGLmZI3f96l34fKNhn-241" edge="1">
          <mxGeometry relative="1" as="geometry" />
        </mxCell>
        <mxCell id="bWBGLmZI3f96l34fKNhn-227" value="Customer" style="shape=tableRow;horizontal=0;swimlaneHead=0;swimlaneBody=0;top=0;left=0;bottom=0;right=0;fillColor=none;points=[[0,0.5],[1,0.5]];portConstraint=eastwest;startSize=40;collapsible=0;recursiveResize=0;expand=0;fontStyle=1;" parent="bWBGLmZI3f96l34fKNhn-225" vertex="1">
          <mxGeometry y="40" width="670" height="180" as="geometry" />
        </mxCell>
        <mxCell id="bWBGLmZI3f96l34fKNhn-228" value="Feel tired" style="swimlane;swimlaneHead=0;swimlaneBody=0;connectable=0;fillColor=none;startSize=40;collapsible=0;recursiveResize=0;expand=0;fontStyle=1;" parent="bWBGLmZI3f96l34fKNhn-227" vertex="1">
          <mxGeometry x="40" width="130" height="180" as="geometry">
            <mxRectangle width="130" height="180" as="alternateBounds" />
          </mxGeometry>
        </mxCell>
        <mxCell id="bWBGLmZI3f96l34fKNhn-229" style="edgeStyle=orthogonalEdgeStyle;rounded=0;orthogonalLoop=1;jettySize=auto;html=1;" parent="bWBGLmZI3f96l34fKNhn-228" source="bWBGLmZI3f96l34fKNhn-230" target="bWBGLmZI3f96l34fKNhn-231" edge="1">
          <mxGeometry relative="1" as="geometry" />
        </mxCell>
        <mxCell id="bWBGLmZI3f96l34fKNhn-230" value="Start" style="rounded=1;whiteSpace=wrap;html=1;arcSize=50;" parent="bWBGLmZI3f96l34fKNhn-228" vertex="1">
          <mxGeometry x="20" y="60" width="90" height="40" as="geometry" />
        </mxCell>
        <mxCell id="bWBGLmZI3f96l34fKNhn-231" value="Find barista" style="rounded=0;whiteSpace=wrap;html=1;" parent="bWBGLmZI3f96l34fKNhn-228" vertex="1">
          <mxGeometry x="20" y="120" width="90" height="40" as="geometry" />
        </mxCell>
        <mxCell id="bWBGLmZI3f96l34fKNhn-232" value="Make transaction" style="swimlane;swimlaneHead=0;swimlaneBody=0;connectable=0;fillColor=none;startSize=40;collapsible=0;recursiveResize=0;expand=0;fontStyle=1;" parent="bWBGLmZI3f96l34fKNhn-227" vertex="1">
          <mxGeometry x="170" width="370" height="180" as="geometry">
            <mxRectangle width="370" height="180" as="alternateBounds" />
          </mxGeometry>
        </mxCell>
        <mxCell id="bWBGLmZI3f96l34fKNhn-233" value="Request latte" style="rounded=0;whiteSpace=wrap;html=1;" parent="bWBGLmZI3f96l34fKNhn-232" vertex="1">
          <mxGeometry x="20" y="120" width="90" height="40" as="geometry" />
        </mxCell>
        <mxCell id="bWBGLmZI3f96l34fKNhn-234" value="Buy latte" style="rounded=0;whiteSpace=wrap;html=1;" parent="bWBGLmZI3f96l34fKNhn-232" vertex="1">
          <mxGeometry x="150" y="120" width="90" height="40" as="geometry" />
        </mxCell>
        <mxCell id="bWBGLmZI3f96l34fKNhn-235" value="Feel perky" style="swimlane;swimlaneHead=0;swimlaneBody=0;connectable=0;fillColor=none;startSize=40;collapsible=0;recursiveResize=0;expand=0;fontStyle=1;" parent="bWBGLmZI3f96l34fKNhn-227" vertex="1">
          <mxGeometry x="540" width="130" height="180" as="geometry">
            <mxRectangle width="130" height="180" as="alternateBounds" />
          </mxGeometry>
        </mxCell>
        <mxCell id="bWBGLmZI3f96l34fKNhn-236" style="edgeStyle=orthogonalEdgeStyle;rounded=0;orthogonalLoop=1;jettySize=auto;html=1;" parent="bWBGLmZI3f96l34fKNhn-235" source="bWBGLmZI3f96l34fKNhn-237" target="bWBGLmZI3f96l34fKNhn-238" edge="1">
          <mxGeometry relative="1" as="geometry" />
        </mxCell>
        <mxCell id="bWBGLmZI3f96l34fKNhn-237" value="Drink latte" style="rounded=0;whiteSpace=wrap;html=1;" parent="bWBGLmZI3f96l34fKNhn-235" vertex="1">
          <mxGeometry x="20" y="60" width="90" height="40" as="geometry" />
        </mxCell>
        <mxCell id="bWBGLmZI3f96l34fKNhn-238" value="End" style="rounded=1;whiteSpace=wrap;html=1;arcSize=50;" parent="bWBGLmZI3f96l34fKNhn-235" vertex="1">
          <mxGeometry x="20" y="120" width="90" height="40" as="geometry" />
        </mxCell>
        <mxCell id="bWBGLmZI3f96l34fKNhn-239" value="Barista" style="shape=tableRow;horizontal=0;swimlaneHead=0;swimlaneBody=0;top=0;left=0;bottom=0;right=0;fillColor=none;points=[[0,0.5],[1,0.5]];portConstraint=eastwest;startSize=40;collapsible=0;recursiveResize=0;expand=0;fontStyle=1;" parent="bWBGLmZI3f96l34fKNhn-225" vertex="1">
          <mxGeometry y="220" width="670" height="80" as="geometry" />
        </mxCell>
        <mxCell id="bWBGLmZI3f96l34fKNhn-240" value="" style="swimlane;swimlaneHead=0;swimlaneBody=0;connectable=0;fillColor=none;startSize=0;collapsible=0;recursiveResize=0;expand=0;fontStyle=1;" parent="bWBGLmZI3f96l34fKNhn-239" vertex="1">
          <mxGeometry x="40" width="130" height="80" as="geometry">
            <mxRectangle width="130" height="80" as="alternateBounds" />
          </mxGeometry>
        </mxCell>
        <mxCell id="bWBGLmZI3f96l34fKNhn-241" value="Greet customer" style="rounded=0;whiteSpace=wrap;html=1;" parent="bWBGLmZI3f96l34fKNhn-240" vertex="1">
          <mxGeometry x="20" y="20" width="90" height="40" as="geometry" />
        </mxCell>
        <mxCell id="bWBGLmZI3f96l34fKNhn-242" value="" style="swimlane;swimlaneHead=0;swimlaneBody=0;connectable=0;fillColor=none;startSize=0;collapsible=0;recursiveResize=0;expand=0;fontStyle=1;" parent="bWBGLmZI3f96l34fKNhn-239" vertex="1">
          <mxGeometry x="170" width="370" height="80" as="geometry">
            <mxRectangle width="370" height="80" as="alternateBounds" />
          </mxGeometry>
        </mxCell>
        <mxCell id="bWBGLmZI3f96l34fKNhn-243" value="" style="edgeStyle=orthogonalEdgeStyle;rounded=0;orthogonalLoop=1;jettySize=auto;html=1;" parent="bWBGLmZI3f96l34fKNhn-242" source="bWBGLmZI3f96l34fKNhn-244" target="bWBGLmZI3f96l34fKNhn-246" edge="1">
          <mxGeometry relative="1" as="geometry" />
        </mxCell>
        <mxCell id="bWBGLmZI3f96l34fKNhn-244" value="Accept&lt;br&gt;payment" style="rounded=0;whiteSpace=wrap;html=1;" parent="bWBGLmZI3f96l34fKNhn-242" vertex="1">
          <mxGeometry x="150" y="20" width="90" height="40" as="geometry" />
        </mxCell>
        <mxCell id="bWBGLmZI3f96l34fKNhn-245" value="Write details&lt;br&gt;on cup" style="shape=document;whiteSpace=wrap;html=1;boundedLbl=1;" parent="bWBGLmZI3f96l34fKNhn-242" vertex="1">
          <mxGeometry x="20" y="10" width="90" height="60" as="geometry" />
        </mxCell>
        <mxCell id="bWBGLmZI3f96l34fKNhn-246" value="Make latte" style="shape=process;whiteSpace=wrap;html=1;backgroundOutline=1;" parent="bWBGLmZI3f96l34fKNhn-242" vertex="1">
          <mxGeometry x="260" y="20" width="90" height="40" as="geometry" />
        </mxCell>
        <mxCell id="bWBGLmZI3f96l34fKNhn-247" value="" style="swimlane;swimlaneHead=0;swimlaneBody=0;connectable=0;fillColor=none;startSize=0;collapsible=0;recursiveResize=0;expand=0;fontStyle=1;" parent="bWBGLmZI3f96l34fKNhn-239" vertex="1">
          <mxGeometry x="540" width="130" height="80" as="geometry">
            <mxRectangle width="130" height="80" as="alternateBounds" />
          </mxGeometry>
        </mxCell>
        <mxCell id="bWBGLmZI3f96l34fKNhn-248" value="" style="edgeStyle=orthogonalEdgeStyle;rounded=0;orthogonalLoop=1;jettySize=auto;html=1;" parent="bWBGLmZI3f96l34fKNhn-225" source="bWBGLmZI3f96l34fKNhn-241" target="bWBGLmZI3f96l34fKNhn-233" edge="1">
          <mxGeometry relative="1" as="geometry">
            <Array as="points">
              <mxPoint x="160" y="260" />
              <mxPoint x="160" y="180" />
            </Array>
          </mxGeometry>
        </mxCell>
        <mxCell id="bWBGLmZI3f96l34fKNhn-249" value="" style="edgeStyle=orthogonalEdgeStyle;rounded=0;orthogonalLoop=1;jettySize=auto;html=1;" parent="bWBGLmZI3f96l34fKNhn-225" source="bWBGLmZI3f96l34fKNhn-233" target="bWBGLmZI3f96l34fKNhn-245" edge="1">
          <mxGeometry relative="1" as="geometry" />
        </mxCell>
        <mxCell id="bWBGLmZI3f96l34fKNhn-250" value="" style="edgeStyle=orthogonalEdgeStyle;rounded=0;orthogonalLoop=1;jettySize=auto;html=1;" parent="bWBGLmZI3f96l34fKNhn-225" source="bWBGLmZI3f96l34fKNhn-245" target="bWBGLmZI3f96l34fKNhn-234" edge="1">
          <mxGeometry relative="1" as="geometry">
            <Array as="points">
              <mxPoint x="300" y="260" />
              <mxPoint x="300" y="180" />
            </Array>
          </mxGeometry>
        </mxCell>
        <mxCell id="bWBGLmZI3f96l34fKNhn-251" value="" style="edgeStyle=orthogonalEdgeStyle;rounded=0;orthogonalLoop=1;jettySize=auto;html=1;" parent="bWBGLmZI3f96l34fKNhn-225" source="bWBGLmZI3f96l34fKNhn-234" target="bWBGLmZI3f96l34fKNhn-244" edge="1">
          <mxGeometry relative="1" as="geometry" />
        </mxCell>
        <mxCell id="bWBGLmZI3f96l34fKNhn-252" style="edgeStyle=orthogonalEdgeStyle;rounded=0;orthogonalLoop=1;jettySize=auto;html=1;" parent="bWBGLmZI3f96l34fKNhn-225" source="bWBGLmZI3f96l34fKNhn-246" target="bWBGLmZI3f96l34fKNhn-237" edge="1">
          <mxGeometry relative="1" as="geometry">
            <Array as="points">
              <mxPoint x="530" y="260" />
              <mxPoint x="530" y="120" />
            </Array>
          </mxGeometry>
        </mxCell>
        <mxCell id="bWBGLmZI3f96l34fKNhn-256" value="" style="shape=stencil(nZzZshzHDUS/5r521L48y/J/KEKUyTBNKih6+3ujfKNmphMzpyW9UVeV07UCiQSq3vIPv3386dcPbyn89v3b179/+Penn79/fMt/eUvp05ePH759+m7/ess/vuUffvn67cPfvn3955ef3//7159Wy/Wvf3z91/qF/7zjSjhyWKgU/vv+l1SOlP//l7++Az5/+nIGtHkG5CNNAMQjtjMgHXEgYOQzIByVAOlo6QSI46gNAPko5y/EdtQEAJuTegaUI1cA1CPEMyAdJSCg9zMgHD0CwHp8Xod5RPpA39/f7fv+4vP240jnEbSj0e/PI5wXoR6VZmjqKpc9oKfta9if3+3z0WGNazxyl/ahQHvblOW8644C82Ptp6zwMan/+RhF2tN81nJM2dRHgi1a2xHOWzQcA+a/9n1q7+0rnPs69gm5t080/3Mvz719hP3cou6fgOvVkh7JsH/geXs78649zH8rR9P+Y/u2j9/v7H/fx/thfqj9PGrX+Yf92W17afsC+7PbcXL7B8bb6zGG7k/YP70fU9sPMOrDpuO8H9Lu4PP2aRvk+3kfMJ/D1vdsf+oR6ffbMc7zafaQ2jt7OLanfdp+hmOe+zP3hD1vn7aLu81n3CN6DsjHFEDGFZt1H9gHpzfgCM+mS7bcKtiI2Y9wtkHmuGmTGkDGsKwWfWE4tpLQzcypZsX8UoF9ZADxS6mhIzbAEEBHemMA2Rm2lcjVzKlHLdvZh4WL4WbbboiI3uPJJzJ+YgHO7i9XtI9rmgTQePdNXeo8Ni98BRCPVthErr1x3n3GPAvN0tCVMyJZaQy37X8DNGSB60Cct6vxtkmD7kc+f8GIUuBDLX7BmEygWWp7XW+AuiOAV3YmnTefcZNMYygaUSyyQZYs7fNys92Ju2Sm9Ly9G7PTGXRrmH8P8IUxdo9vgHkU8odd+YV5+E4Orh75PAZz8XSmR1aPYj6epnVEpTDm5AsMupsRkDHM7TKeA8YRz7M0OCrqbVuhG8B4IkxrL9uL3wBGhIgnJd0aa6KJ+ATd3raUAbrU3BG1zTKgS7Y307lLth2JK7Wo0emdTbwKFsTM2BkMFF2U3eMboKJ/qC7oNztSOT4dMgZ2oyvCli6NLQO8khW0SxMtn7mP4AAVjmjuKr4srwezlIsbgx0pmKWctlG5ywocxxhVyNH1CeZ18Vo3avK7xo8kMjdAhEEsBib7e6C2sEKFs2e3vTGoS3Eb6wcAzVKcrkvM+mLf6/RwIMgKGHUW870IPGxXI+ddAAkPhNH/KIc6cpeiEiYLckgjcSTRLB/FlGOfllv7hm667/jl1r4ggWtq9gbHlEVDPvM+k86OmqTOZCzp75v7oiVOR5D2FTWPeJTzehkDIM3GhaBLRMD2VRhGwBg66MFvYx/UF+3Tuf+tYwwdlC20iqYr6KlfLA/7I1FSy6hk+/Y3L/eqvfQ/YHwRdD8YDybSGTSgrx3ZVFADURvyu7DN+APzJ6fvSLPRBm4vsr2FIiSqB5XAKovwQdUFYyXUPirvqhxARpUKytw9fNFeSNQK7oBPJJXsl4iP9qdKfzpyrqTsw6JT0qjyVihv7eue4RftW9T2FB5k9amF909Re1gy0q2iEkTJqLlWN96EsURVj23tM2nkqk2tVBnMZ1N/ZO0zBUNqz43RTujP0Ej/nhx85d+DtseYV89jYc17qn0oAe1hDJoDyRM11OhOvAFItTeAuPjMlGClCbMCKMw3gIRmF7JXdCzFAJmskBHLoABK5cSq+kzuGKUYQKW7jo7SyHEqCqCdZwBVEzu6euPrNSsg0zoMtzX6piOvQgjx3rnx1nimiBJ9umvjD4AK/swcTnRdIoOUnAKUOQxaLupsgnNFE5NuDOsBQDH1Sgu7L5CaaFZe4tdccXsbQNyOheUUFpidl/oEA9BuXYa+KYB04+SSUwbAhes7qfEAwIUbLkOQeeGcsTcAGbJVv1AVQOw3TWfIMoZDOaj/zGmbtlcA3d4Jtb4clYHZX0hCzS5La3+hhbMOSIxjnSROmF1xjAHI8tkkitCcA7OwrKYyTSzNsK0WHIDi0vvuvwEGStkrt1QVQMzHAJrF6xzqN1V1F3uiMTSXiex7O74SByVaW6ecxtB1LxmA5Blz4+JFV+qSujSUCZhpG/SFqebeABQhLf4lgy4o0WSfHC17ZV6JtCIamccg21qcyrF0GxKag1YGrYI36lJUc29+NVP9WnTnIaCZWYChgMQ1eE2qlbgcwQCSJjQAkRMDaH3TxAIki420HGFiZv4eTP1+gLis1SXSB5PWCK1B8xekym9pOLT50tatHwDkHxYgKIBCmtUlV21JNLQkLTxctJFnScLuxD6uOJKYOG41QPAAWoeoVHppOXxE1fKFq/Oghiwg13h6RHHQz74QKGPmyHqcKMff1YXH80AJsKSCwDpxZMiSeqA4r3JyxQEopFlH1A2aNLd1Hrzluzhxbh3SHz3TWH38JwDZuSws6k478fMAQCMQNcpa4h3vVu1SufJxSuHqpo2v3K52qXKXXDrinpl8yTXEanS03gZQP905fnBFgwagMRgjK00BVBu2hBVHpUnjXrKHo9KdutQc/ZmYVlwaQ1MArkN1Po7drgE08Avb8LwKODS0DGj5DJBcHEe1AhY0yZk2AGmhBtD6Vk4mWeAn2YMVO1KXnNW4x46vglcpkMhcY5+jrvSKHYnd32rYH1UHGnTQWw5rZVh1mA6AGtl061Aw2rXj0pyYQ0fUACqfVlQSl41ICqA86TJbTvK60Jd0WitLj67YZh1aGnTV6xe5oeqQnCaw7AgLg9MBKGI3gO7WhldmVlzoxjC5TkVPXEerca+ZfwDg9o4aA+WOMdCdpT4q6yT2T6eGdiy8N4BqZAMHvWrCXYaDqEPszyqBYR1i18KQzBV3qzjHJY6w/Kc6Q8aSlwFyUQDWcLtilczBayxaKpkn51BcfWieqJHFrOX9he/ERKdVGoAKgGJSrXKROs7H1aoALJKKmqUxAOWMoyuCWNQXDNlU2loirpsvQo/Ix4aSpUX2qYRWSe5FkXt/kvQmTbC5pDcn1ZvWSFp7CqSrEqtSMJ1T9RisGn26CKe24n7X83mY4Ur669bWXrTX/dPwfm1Wg10udGVNIBS+mOSqYC9uGCT1y2VeFJWIO6ic5HdFMesCA+VZVVepXDQRtSagJjxfrnS0ZjSjQe10LTg/Qe9RrqIqbC/OrzbkdkGV3lUUhkVnIv9Vdn0uCd246CNoNumyaE6KUltGtuz7U67mU36/ogNwBKr1iyJBOV+Ni5vdPdl24YU1XumsjbqgrifObqsCsa5UkCiisfi6s0GiotrDPtAfVbUnI2yy9sq/SBFxQvmuuyLojPZwqD8aFc97dFnq0VGbNooiSYV1X4RWOCt7nVxnamRUkv8zYtJ53ft0xetId4erRedSvqXins3WxQWTu8B/AzT2ey6am/2qLkRuaE+uYlpRtXxhcHA2NCKdHKesyxznzTcnZ3jdfZF16ZG0OH/rYLK05vjivJAHp17em4OrNl2SbXK8uG4GuatE+PbGcICGnKI6udx2KwKKev1ZmPU6XXdmfKHEvLAkd2Zk3l40/zo532R+Ty3xYMsa3P2Mhme6u926bvXTowhFqytHxvNgvknKz0ZE9t676onmfmh796ny4PJvFM/FTVceHChdbrIhSgTVucDNHJTE7Z1DNFsmUfuMY5DUPIbqiW1gZfiYKt41vh44o1q+xmHgdNpDi3z1OquZMSJ8cW1ZInFj5uRFzUboExUFV3o6LlMTKpYG0BsPAXXddcfSXTGgK0LT14gz3Vsu0BX1U87MAHorIWHAvPyN04Ao0z5dFVMeKBHM6d4eapigmlNJdGZRYQFEgMzIcqdLRWY290++wCRxASRRyNdlp8ukrCepeJaEJN7J+6utoYlzriabrog7JVTwZ1fOd79E9OrECRMw6otf8A+Ddbx67c3M0pKpS1lvtMfMZsYXViWUnKaLiWPAzOJwl7sv3IMrruQXJEZRI1P5sSB/swqL0Id/T4UfRugqaiV8HKw7kTPi/HQnEkY0YN2X/2H9SJsqq/OjIs1laAKWVJqzD9qeNLlnj3eRZXn2OBi2TyrCB8wBt6gJ18AXw9wbQRePuQ0V5Xj+1wMrYlSwHLQ2tbwRNZ5adbyXj+PJTfGEFSDVZZaY5xgN0lQu8lOL1zSjztGXE3UL99/fxOUnMadjs5gcL0NF1M4lml2rdweXBzveyBq/tRcRL17UjFb3QmfiWsXinFjhUtzsihv58r0BJBMY+RmuOw29bdKI6U9fdL3cAFd0yrQmfrymBF3nRYi4+F2UjlSuvtDcF8h0FZdPWAAu29PrJnz9al0ybe4LPAaJTq/HoEz2cpb8q7tYLR9UNTMAMaji7tYnftvgKaD80S4R6fozTw1fAewf95eNf/n0+fP7w8iP/19fQrY/vb+inH/8Hw==);lineShape=1;strokeColor=default;fillColor=#54FFC6;points=[[0.43,0.21,0,0,0]];movable=1;resizable=1;rotatable=1;deletable=1;editable=1;locked=0;connectable=1;" parent="1" vertex="1">
          <mxGeometry x="1100.0014704337098" y="960.0024379367999" width="213.3611541427519" height="136.07204403323885" as="geometry" />
        </mxCell>
        <mxCell id="k4sQxNacNRU6vaHa-66G-96" value="" style="group" vertex="1" connectable="0" parent="1">
          <mxGeometry x="-270" y="1250" width="630" height="800" as="geometry" />
        </mxCell>
        <mxCell id="bWBGLmZI3f96l34fKNhn-121" style="edgeStyle=none;rounded=0;orthogonalLoop=1;jettySize=auto;html=1;entryX=0.5;entryY=0;entryDx=0;entryDy=0;" parent="k4sQxNacNRU6vaHa-66G-96" target="bWBGLmZI3f96l34fKNhn-98" edge="1">
          <mxGeometry relative="1" as="geometry">
            <mxPoint x="320" y="30" as="sourcePoint" />
            <Array as="points">
              <mxPoint x="320" y="40" />
              <mxPoint x="116" y="40" />
            </Array>
          </mxGeometry>
        </mxCell>
        <mxCell id="bWBGLmZI3f96l34fKNhn-96" value="Start" style="ellipse;whiteSpace=wrap;html=1;" parent="k4sQxNacNRU6vaHa-66G-96" vertex="1">
          <mxGeometry x="283.5" width="70" height="30" as="geometry" />
        </mxCell>
        <mxCell id="bWBGLmZI3f96l34fKNhn-122" style="edgeStyle=none;rounded=0;orthogonalLoop=1;jettySize=auto;html=1;exitX=1;exitY=0.5;exitDx=0;exitDy=0;entryX=0;entryY=0.5;entryDx=0;entryDy=0;" parent="k4sQxNacNRU6vaHa-66G-96" source="bWBGLmZI3f96l34fKNhn-98" target="bWBGLmZI3f96l34fKNhn-99" edge="1">
          <mxGeometry relative="1" as="geometry" />
        </mxCell>
        <mxCell id="bWBGLmZI3f96l34fKNhn-98" value="Initialize the population `X`" style="rounded=1;whiteSpace=wrap;html=1;" parent="k4sQxNacNRU6vaHa-66G-96" vertex="1">
          <mxGeometry x="36" y="60" width="160" height="50" as="geometry" />
        </mxCell>
        <mxCell id="bWBGLmZI3f96l34fKNhn-159" style="edgeStyle=none;rounded=0;orthogonalLoop=1;jettySize=auto;html=1;" parent="k4sQxNacNRU6vaHa-66G-96" source="bWBGLmZI3f96l34fKNhn-99" edge="1">
          <mxGeometry relative="1" as="geometry">
            <mxPoint x="440" y="85" as="targetPoint" />
          </mxGeometry>
        </mxCell>
        <mxCell id="bWBGLmZI3f96l34fKNhn-99" value="Calculate `Fit`" style="rounded=1;whiteSpace=wrap;html=1;" parent="k4sQxNacNRU6vaHa-66G-96" vertex="1">
          <mxGeometry x="238.5" y="60" width="160" height="50" as="geometry" />
        </mxCell>
        <mxCell id="bWBGLmZI3f96l34fKNhn-161" style="edgeStyle=none;rounded=0;orthogonalLoop=1;jettySize=auto;html=1;" parent="k4sQxNacNRU6vaHa-66G-96" source="bWBGLmZI3f96l34fKNhn-100" edge="1">
          <mxGeometry relative="1" as="geometry">
            <mxPoint x="440" y="85" as="targetPoint" />
          </mxGeometry>
        </mxCell>
        <mxCell id="bWBGLmZI3f96l34fKNhn-100" value="Update `X_b`" style="rounded=1;whiteSpace=wrap;html=1;" parent="k4sQxNacNRU6vaHa-66G-96" vertex="1">
          <mxGeometry x="440" y="60" width="160" height="50" as="geometry" />
        </mxCell>
        <mxCell id="bWBGLmZI3f96l34fKNhn-125" style="edgeStyle=none;rounded=0;orthogonalLoop=1;jettySize=auto;html=1;exitX=1;exitY=0.5;exitDx=0;exitDy=0;entryX=0;entryY=0.5;entryDx=0;entryDy=0;" parent="k4sQxNacNRU6vaHa-66G-96" source="bWBGLmZI3f96l34fKNhn-101" target="bWBGLmZI3f96l34fKNhn-102" edge="1">
          <mxGeometry relative="1" as="geometry" />
        </mxCell>
        <mxCell id="bWBGLmZI3f96l34fKNhn-132" value="Yes" style="edgeLabel;html=1;align=center;verticalAlign=middle;resizable=0;points=[];" parent="bWBGLmZI3f96l34fKNhn-125" vertex="1" connectable="0">
          <mxGeometry x="-0.2848" y="1" relative="1" as="geometry">
            <mxPoint x="10" y="1" as="offset" />
          </mxGeometry>
        </mxCell>
        <mxCell id="bWBGLmZI3f96l34fKNhn-101" value="`FEs&amp;lt;MaxFEs`" style="rhombus;whiteSpace=wrap;html=1;" parent="k4sQxNacNRU6vaHa-66G-96" vertex="1">
          <mxGeometry x="243.5" y="138" width="150" height="50" as="geometry" />
        </mxCell>
        <mxCell id="bWBGLmZI3f96l34fKNhn-126" style="edgeStyle=none;rounded=0;orthogonalLoop=1;jettySize=auto;html=1;entryX=0.5;entryY=0;entryDx=0;entryDy=0;" parent="k4sQxNacNRU6vaHa-66G-96" source="bWBGLmZI3f96l34fKNhn-102" target="bWBGLmZI3f96l34fKNhn-103" edge="1">
          <mxGeometry relative="1" as="geometry" />
        </mxCell>
        <mxCell id="bWBGLmZI3f96l34fKNhn-102" value="Calculate `W_1` and `W_2` by Eq. (6) and Eq. (7)" style="rounded=1;whiteSpace=wrap;html=1;" parent="k4sQxNacNRU6vaHa-66G-96" vertex="1">
          <mxGeometry x="440" y="138" width="160" height="50" as="geometry" />
        </mxCell>
        <mxCell id="bWBGLmZI3f96l34fKNhn-127" style="edgeStyle=none;rounded=0;orthogonalLoop=1;jettySize=auto;html=1;entryX=0.5;entryY=0;entryDx=0;entryDy=0;" parent="k4sQxNacNRU6vaHa-66G-96" source="bWBGLmZI3f96l34fKNhn-103" target="bWBGLmZI3f96l34fKNhn-104" edge="1">
          <mxGeometry relative="1" as="geometry" />
        </mxCell>
        <mxCell id="bWBGLmZI3f96l34fKNhn-103" value="Calculate `K` by Eq. (9)" style="rounded=1;whiteSpace=wrap;html=1;" parent="k4sQxNacNRU6vaHa-66G-96" vertex="1">
          <mxGeometry x="440" y="230" width="160" height="50" as="geometry" />
        </mxCell>
        <mxCell id="bWBGLmZI3f96l34fKNhn-128" style="edgeStyle=none;rounded=0;orthogonalLoop=1;jettySize=auto;html=1;exitX=0.5;exitY=1;exitDx=0;exitDy=0;entryX=0.5;entryY=0;entryDx=0;entryDy=0;" parent="k4sQxNacNRU6vaHa-66G-96" source="bWBGLmZI3f96l34fKNhn-104" target="bWBGLmZI3f96l34fKNhn-105" edge="1">
          <mxGeometry relative="1" as="geometry" />
        </mxCell>
        <mxCell id="bWBGLmZI3f96l34fKNhn-104" value="Calculate `F` by Eq. (12)" style="rounded=1;whiteSpace=wrap;html=1;" parent="k4sQxNacNRU6vaHa-66G-96" vertex="1">
          <mxGeometry x="440" y="320" width="160" height="50" as="geometry" />
        </mxCell>
        <mxCell id="bWBGLmZI3f96l34fKNhn-129" style="edgeStyle=none;rounded=0;orthogonalLoop=1;jettySize=auto;html=1;exitX=0.5;exitY=1;exitDx=0;exitDy=0;entryX=0.509;entryY=-0.01;entryDx=0;entryDy=0;entryPerimeter=0;" parent="k4sQxNacNRU6vaHa-66G-96" source="bWBGLmZI3f96l34fKNhn-105" target="bWBGLmZI3f96l34fKNhn-106" edge="1">
          <mxGeometry relative="1" as="geometry">
            <Array as="points">
              <mxPoint x="520" y="480" />
              <mxPoint x="420" y="480" />
              <mxPoint x="420" y="210" />
              <mxPoint x="320" y="210" />
            </Array>
          </mxGeometry>
        </mxCell>
        <mxCell id="bWBGLmZI3f96l34fKNhn-105" value="Calculate `Fit^{norm}`" style="rounded=1;whiteSpace=wrap;html=1;" parent="k4sQxNacNRU6vaHa-66G-96" vertex="1">
          <mxGeometry x="440" y="410" width="160" height="50" as="geometry" />
        </mxCell>
        <mxCell id="bWBGLmZI3f96l34fKNhn-131" style="edgeStyle=none;rounded=0;orthogonalLoop=1;jettySize=auto;html=1;entryX=0.5;entryY=0;entryDx=0;entryDy=0;" parent="k4sQxNacNRU6vaHa-66G-96" source="bWBGLmZI3f96l34fKNhn-106" target="bWBGLmZI3f96l34fKNhn-109" edge="1">
          <mxGeometry relative="1" as="geometry" />
        </mxCell>
        <mxCell id="bWBGLmZI3f96l34fKNhn-106" value="Update `X_i^{\text{new}}` by Eq. (5)" style="rounded=1;whiteSpace=wrap;html=1;" parent="k4sQxNacNRU6vaHa-66G-96" vertex="1">
          <mxGeometry x="238.5" y="230" width="160" height="50" as="geometry" />
        </mxCell>
        <mxCell id="bWBGLmZI3f96l34fKNhn-141" style="edgeStyle=none;rounded=0;orthogonalLoop=1;jettySize=auto;html=1;entryX=0;entryY=0.5;entryDx=0;entryDy=0;" parent="k4sQxNacNRU6vaHa-66G-96" source="bWBGLmZI3f96l34fKNhn-108" target="bWBGLmZI3f96l34fKNhn-113" edge="1">
          <mxGeometry relative="1" as="geometry">
            <Array as="points">
              <mxPoint x="319" y="490" />
              <mxPoint y="490" />
              <mxPoint y="163" />
            </Array>
          </mxGeometry>
        </mxCell>
        <mxCell id="bWBGLmZI3f96l34fKNhn-108" value="Update `X_{i,j}^{\text{new}}` by Eq. (11)" style="rounded=1;whiteSpace=wrap;html=1;" parent="k4sQxNacNRU6vaHa-66G-96" vertex="1">
          <mxGeometry x="238.5" y="410" width="160" height="50" as="geometry" />
        </mxCell>
        <mxCell id="bWBGLmZI3f96l34fKNhn-134" style="edgeStyle=none;rounded=0;orthogonalLoop=1;jettySize=auto;html=1;entryX=0.5;entryY=0;entryDx=0;entryDy=0;" parent="k4sQxNacNRU6vaHa-66G-96" source="bWBGLmZI3f96l34fKNhn-109" target="bWBGLmZI3f96l34fKNhn-108" edge="1">
          <mxGeometry relative="1" as="geometry" />
        </mxCell>
        <mxCell id="bWBGLmZI3f96l34fKNhn-135" value="Yes" style="edgeLabel;html=1;align=center;verticalAlign=middle;resizable=0;points=[];" parent="bWBGLmZI3f96l34fKNhn-134" vertex="1" connectable="0">
          <mxGeometry x="-0.1581" y="-1" relative="1" as="geometry">
            <mxPoint as="offset" />
          </mxGeometry>
        </mxCell>
        <mxCell id="bWBGLmZI3f96l34fKNhn-142" style="edgeStyle=none;rounded=0;orthogonalLoop=1;jettySize=auto;html=1;entryX=1;entryY=0.5;entryDx=0;entryDy=0;" parent="k4sQxNacNRU6vaHa-66G-96" source="bWBGLmZI3f96l34fKNhn-109" target="bWBGLmZI3f96l34fKNhn-110" edge="1">
          <mxGeometry relative="1" as="geometry">
            <Array as="points">
              <mxPoint x="220" y="345" />
              <mxPoint x="220" y="435" />
            </Array>
          </mxGeometry>
        </mxCell>
        <mxCell id="bWBGLmZI3f96l34fKNhn-143" value="No" style="edgeLabel;html=1;align=center;verticalAlign=middle;resizable=0;points=[];" parent="bWBGLmZI3f96l34fKNhn-142" vertex="1" connectable="0">
          <mxGeometry x="-0.0767" relative="1" as="geometry">
            <mxPoint as="offset" />
          </mxGeometry>
        </mxCell>
        <mxCell id="bWBGLmZI3f96l34fKNhn-109" value="`r_7` &amp;lt; `\theta`" style="rhombus;whiteSpace=wrap;html=1;" parent="k4sQxNacNRU6vaHa-66G-96" vertex="1">
          <mxGeometry x="243.5" y="320" width="150" height="50" as="geometry" />
        </mxCell>
        <mxCell id="bWBGLmZI3f96l34fKNhn-137" style="edgeStyle=none;rounded=0;orthogonalLoop=1;jettySize=auto;html=1;entryX=0.5;entryY=1;entryDx=0;entryDy=0;" parent="k4sQxNacNRU6vaHa-66G-96" source="bWBGLmZI3f96l34fKNhn-110" target="bWBGLmZI3f96l34fKNhn-112" edge="1">
          <mxGeometry relative="1" as="geometry" />
        </mxCell>
        <mxCell id="bWBGLmZI3f96l34fKNhn-138" value="Yes" style="edgeLabel;html=1;align=center;verticalAlign=middle;resizable=0;points=[];" parent="bWBGLmZI3f96l34fKNhn-137" vertex="1" connectable="0">
          <mxGeometry x="0.0214" y="-1" relative="1" as="geometry">
            <mxPoint as="offset" />
          </mxGeometry>
        </mxCell>
        <mxCell id="bWBGLmZI3f96l34fKNhn-144" style="edgeStyle=none;rounded=0;orthogonalLoop=1;jettySize=auto;html=1;" parent="k4sQxNacNRU6vaHa-66G-96" source="bWBGLmZI3f96l34fKNhn-110" edge="1">
          <mxGeometry relative="1" as="geometry">
            <mxPoint y="435" as="targetPoint" />
          </mxGeometry>
        </mxCell>
        <mxCell id="bWBGLmZI3f96l34fKNhn-145" value="No" style="edgeLabel;html=1;align=center;verticalAlign=middle;resizable=0;points=[];" parent="bWBGLmZI3f96l34fKNhn-144" vertex="1" connectable="0">
          <mxGeometry x="-0.108" y="-1" relative="1" as="geometry">
            <mxPoint as="offset" />
          </mxGeometry>
        </mxCell>
        <mxCell id="bWBGLmZI3f96l34fKNhn-110" value="`r_8` &amp;lt; `Fit_i^{\text{norm}}`" style="rhombus;whiteSpace=wrap;html=1;" parent="k4sQxNacNRU6vaHa-66G-96" vertex="1">
          <mxGeometry x="41" y="410" width="150" height="50" as="geometry" />
        </mxCell>
        <mxCell id="bWBGLmZI3f96l34fKNhn-140" style="edgeStyle=none;rounded=0;orthogonalLoop=1;jettySize=auto;html=1;entryX=0.5;entryY=1;entryDx=0;entryDy=0;" parent="k4sQxNacNRU6vaHa-66G-96" source="bWBGLmZI3f96l34fKNhn-111" target="bWBGLmZI3f96l34fKNhn-113" edge="1">
          <mxGeometry relative="1" as="geometry" />
        </mxCell>
        <mxCell id="bWBGLmZI3f96l34fKNhn-111" value="Update `X_{i,j}^{\text{new}}` by Eq. (13)" style="rounded=1;whiteSpace=wrap;html=1;" parent="k4sQxNacNRU6vaHa-66G-96" vertex="1">
          <mxGeometry x="36" y="230" width="160" height="50" as="geometry" />
        </mxCell>
        <mxCell id="bWBGLmZI3f96l34fKNhn-139" style="edgeStyle=none;rounded=0;orthogonalLoop=1;jettySize=auto;html=1;entryX=0.5;entryY=1;entryDx=0;entryDy=0;" parent="k4sQxNacNRU6vaHa-66G-96" source="bWBGLmZI3f96l34fKNhn-112" target="bWBGLmZI3f96l34fKNhn-111" edge="1">
          <mxGeometry relative="1" as="geometry" />
        </mxCell>
        <mxCell id="bWBGLmZI3f96l34fKNhn-112" value="Update `\beta` by Eq. (14)" style="rounded=1;whiteSpace=wrap;html=1;" parent="k4sQxNacNRU6vaHa-66G-96" vertex="1">
          <mxGeometry x="36" y="320" width="160" height="50" as="geometry" />
        </mxCell>
        <mxCell id="bWBGLmZI3f96l34fKNhn-146" style="edgeStyle=none;rounded=0;orthogonalLoop=1;jettySize=auto;html=1;" parent="k4sQxNacNRU6vaHa-66G-96" source="bWBGLmZI3f96l34fKNhn-113" target="bWBGLmZI3f96l34fKNhn-114" edge="1">
          <mxGeometry relative="1" as="geometry">
            <Array as="points">
              <mxPoint x="230" y="163" />
              <mxPoint x="230" y="500" />
              <mxPoint x="116" y="500" />
            </Array>
          </mxGeometry>
        </mxCell>
        <mxCell id="bWBGLmZI3f96l34fKNhn-113" value="Boundary control of `X_i^{\text{new}}`" style="rounded=1;whiteSpace=wrap;html=1;" parent="k4sQxNacNRU6vaHa-66G-96" vertex="1">
          <mxGeometry x="36" y="138" width="160" height="50" as="geometry" />
        </mxCell>
        <mxCell id="bWBGLmZI3f96l34fKNhn-148" style="edgeStyle=none;rounded=0;orthogonalLoop=1;jettySize=auto;html=1;entryX=0;entryY=0.5;entryDx=0;entryDy=0;" parent="k4sQxNacNRU6vaHa-66G-96" source="bWBGLmZI3f96l34fKNhn-114" target="bWBGLmZI3f96l34fKNhn-115" edge="1">
          <mxGeometry relative="1" as="geometry" />
        </mxCell>
        <mxCell id="bWBGLmZI3f96l34fKNhn-114" value="Calculate `Fit^{\text{new}}`" style="rounded=1;whiteSpace=wrap;html=1;" parent="k4sQxNacNRU6vaHa-66G-96" vertex="1">
          <mxGeometry x="36" y="520" width="160" height="50" as="geometry" />
        </mxCell>
        <mxCell id="bWBGLmZI3f96l34fKNhn-149" style="edgeStyle=none;rounded=0;orthogonalLoop=1;jettySize=auto;html=1;" parent="k4sQxNacNRU6vaHa-66G-96" source="bWBGLmZI3f96l34fKNhn-115" edge="1">
          <mxGeometry relative="1" as="geometry">
            <mxPoint x="440" y="545" as="targetPoint" />
          </mxGeometry>
        </mxCell>
        <mxCell id="bWBGLmZI3f96l34fKNhn-115" value="Greedy selection" style="rounded=1;whiteSpace=wrap;html=1;" parent="k4sQxNacNRU6vaHa-66G-96" vertex="1">
          <mxGeometry x="238.5" y="520" width="160" height="50" as="geometry" />
        </mxCell>
        <mxCell id="bWBGLmZI3f96l34fKNhn-116" value="Update `X_b`" style="rounded=1;whiteSpace=wrap;html=1;" parent="k4sQxNacNRU6vaHa-66G-96" vertex="1">
          <mxGeometry x="441" y="520" width="160" height="50" as="geometry" />
        </mxCell>
        <mxCell id="bWBGLmZI3f96l34fKNhn-152" style="edgeStyle=none;rounded=0;orthogonalLoop=1;jettySize=auto;html=1;entryX=0.5;entryY=0;entryDx=0;entryDy=0;" parent="k4sQxNacNRU6vaHa-66G-96" source="bWBGLmZI3f96l34fKNhn-117" target="bWBGLmZI3f96l34fKNhn-119" edge="1">
          <mxGeometry relative="1" as="geometry" />
        </mxCell>
        <mxCell id="bWBGLmZI3f96l34fKNhn-117" value="Update `FEs`" style="rounded=1;whiteSpace=wrap;html=1;" parent="k4sQxNacNRU6vaHa-66G-96" vertex="1">
          <mxGeometry x="238.5" y="600" width="160" height="50" as="geometry" />
        </mxCell>
        <mxCell id="bWBGLmZI3f96l34fKNhn-154" style="edgeStyle=none;rounded=0;orthogonalLoop=1;jettySize=auto;html=1;entryX=0.5;entryY=0;entryDx=0;entryDy=0;" parent="k4sQxNacNRU6vaHa-66G-96" source="bWBGLmZI3f96l34fKNhn-119" target="bWBGLmZI3f96l34fKNhn-120" edge="1">
          <mxGeometry relative="1" as="geometry" />
        </mxCell>
        <mxCell id="bWBGLmZI3f96l34fKNhn-119" value="Reture `X_b`" style="rounded=1;whiteSpace=wrap;html=1;" parent="k4sQxNacNRU6vaHa-66G-96" vertex="1">
          <mxGeometry x="238.5" y="690" width="160" height="50" as="geometry" />
        </mxCell>
        <mxCell id="bWBGLmZI3f96l34fKNhn-120" value="End" style="ellipse;whiteSpace=wrap;html=1;" parent="k4sQxNacNRU6vaHa-66G-96" vertex="1">
          <mxGeometry x="283.5" y="770" width="70" height="30" as="geometry" />
        </mxCell>
        <mxCell id="bWBGLmZI3f96l34fKNhn-124" style="edgeStyle=none;rounded=0;orthogonalLoop=1;jettySize=auto;html=1;entryX=0.499;entryY=-0.023;entryDx=0;entryDy=0;entryPerimeter=0;exitX=1.003;exitY=0.603;exitDx=0;exitDy=0;exitPerimeter=0;" parent="k4sQxNacNRU6vaHa-66G-96" source="bWBGLmZI3f96l34fKNhn-100" target="bWBGLmZI3f96l34fKNhn-101" edge="1">
          <mxGeometry relative="1" as="geometry">
            <mxPoint x="318" y="110" as="sourcePoint" />
            <mxPoint x="318.12" y="137.35000000000036" as="targetPoint" />
            <Array as="points">
              <mxPoint x="630" y="90" />
              <mxPoint x="630" y="120" />
              <mxPoint x="318" y="120" />
            </Array>
          </mxGeometry>
        </mxCell>
        <mxCell id="bWBGLmZI3f96l34fKNhn-150" style="edgeStyle=none;rounded=0;orthogonalLoop=1;jettySize=auto;html=1;entryX=0.513;entryY=-0.024;entryDx=0;entryDy=0;entryPerimeter=0;" parent="k4sQxNacNRU6vaHa-66G-96" edge="1">
          <mxGeometry relative="1" as="geometry">
            <mxPoint x="521" y="571.2000000000003" as="sourcePoint" />
            <mxPoint x="320.58000000000004" y="600.0000000000002" as="targetPoint" />
            <Array as="points">
              <mxPoint x="521" y="581.2" />
              <mxPoint x="320" y="581.2" />
            </Array>
          </mxGeometry>
        </mxCell>
        <mxCell id="bWBGLmZI3f96l34fKNhn-155" style="edgeStyle=none;rounded=0;orthogonalLoop=1;jettySize=auto;html=1;entryX=0.999;entryY=0.588;entryDx=0;entryDy=0;entryPerimeter=0;exitX=1;exitY=0.5;exitDx=0;exitDy=0;" parent="k4sQxNacNRU6vaHa-66G-96" source="bWBGLmZI3f96l34fKNhn-101" target="bWBGLmZI3f96l34fKNhn-119" edge="1">
          <mxGeometry relative="1" as="geometry">
            <Array as="points">
              <mxPoint x="410" y="163" />
              <mxPoint x="410" y="720" />
            </Array>
          </mxGeometry>
        </mxCell>
        <mxCell id="bWBGLmZI3f96l34fKNhn-157" value="No" style="edgeLabel;html=1;align=center;verticalAlign=middle;resizable=0;points=[];" parent="bWBGLmZI3f96l34fKNhn-155" vertex="1" connectable="0">
          <mxGeometry x="-0.8608" y="1" relative="1" as="geometry">
            <mxPoint as="offset" />
          </mxGeometry>
        </mxCell>
        <mxCell id="k4sQxNacNRU6vaHa-66G-135" value="" style="group" vertex="1" connectable="0" parent="1">
          <mxGeometry x="710" y="1180" width="600" height="650" as="geometry" />
        </mxCell>
        <mxCell id="bWBGLmZI3f96l34fKNhn-209" style="edgeStyle=none;rounded=0;orthogonalLoop=1;jettySize=auto;html=1;entryX=0.5;entryY=0;entryDx=0;entryDy=0;fontFamily=Times New Roman;" parent="k4sQxNacNRU6vaHa-66G-135" source="bWBGLmZI3f96l34fKNhn-162" target="bWBGLmZI3f96l34fKNhn-163" edge="1">
          <mxGeometry relative="1" as="geometry" />
        </mxCell>
        <mxCell id="bWBGLmZI3f96l34fKNhn-162" value="Start" style="ellipse;whiteSpace=wrap;html=1;fillColor=light-dark(#d4cbbf, #ededed);fontFamily=Times New Roman;" parent="k4sQxNacNRU6vaHa-66G-135" vertex="1">
          <mxGeometry x="255" width="70" height="30" as="geometry" />
        </mxCell>
        <mxCell id="bWBGLmZI3f96l34fKNhn-210" style="edgeStyle=none;rounded=0;orthogonalLoop=1;jettySize=auto;html=1;entryX=0.5;entryY=0;entryDx=0;entryDy=0;fontFamily=Times New Roman;" parent="k4sQxNacNRU6vaHa-66G-135" source="bWBGLmZI3f96l34fKNhn-163" target="bWBGLmZI3f96l34fKNhn-166" edge="1">
          <mxGeometry relative="1" as="geometry" />
        </mxCell>
        <mxCell id="bWBGLmZI3f96l34fKNhn-163" value="Initialize the population `X`&lt;div&gt;Calculate `Fit`&lt;/div&gt;&lt;div&gt;Update `X_b`&lt;/div&gt;" style="rounded=1;whiteSpace=wrap;html=1;fillColor=light-dark(#c8adf0, #EDEDED);fillStyle=auto;gradientColor=#FFCCFF;gradientDirection=east;fontFamily=Times New Roman;" parent="k4sQxNacNRU6vaHa-66G-135" vertex="1">
          <mxGeometry x="212.5" y="50" width="155" height="50" as="geometry" />
        </mxCell>
        <mxCell id="bWBGLmZI3f96l34fKNhn-199" style="edgeStyle=none;rounded=0;orthogonalLoop=1;jettySize=auto;html=1;entryX=1;entryY=0.5;entryDx=0;entryDy=0;fontFamily=Times New Roman;" parent="k4sQxNacNRU6vaHa-66G-135" source="bWBGLmZI3f96l34fKNhn-166" target="bWBGLmZI3f96l34fKNhn-193" edge="1">
          <mxGeometry relative="1" as="geometry">
            <Array as="points">
              <mxPoint x="600" y="143" />
              <mxPoint x="600" y="565" />
            </Array>
          </mxGeometry>
        </mxCell>
        <mxCell id="bWBGLmZI3f96l34fKNhn-200" value="No" style="edgeLabel;html=1;align=center;verticalAlign=middle;resizable=0;points=[];fontFamily=Times New Roman;" parent="bWBGLmZI3f96l34fKNhn-199" vertex="1" connectable="0">
          <mxGeometry x="-0.9359" y="1" relative="1" as="geometry">
            <mxPoint as="offset" />
          </mxGeometry>
        </mxCell>
        <mxCell id="bWBGLmZI3f96l34fKNhn-202" style="edgeStyle=none;rounded=0;orthogonalLoop=1;jettySize=auto;html=1;entryX=0.5;entryY=0;entryDx=0;entryDy=0;fontFamily=Times New Roman;" parent="k4sQxNacNRU6vaHa-66G-135" source="bWBGLmZI3f96l34fKNhn-166" target="bWBGLmZI3f96l34fKNhn-167" edge="1">
          <mxGeometry relative="1" as="geometry" />
        </mxCell>
        <mxCell id="bWBGLmZI3f96l34fKNhn-204" value="Yes" style="edgeLabel;html=1;align=center;verticalAlign=middle;resizable=0;points=[];fontFamily=Times New Roman;" parent="bWBGLmZI3f96l34fKNhn-202" vertex="1" connectable="0">
          <mxGeometry x="-0.0404" y="1" relative="1" as="geometry">
            <mxPoint y="-3" as="offset" />
          </mxGeometry>
        </mxCell>
        <mxCell id="bWBGLmZI3f96l34fKNhn-166" value="`FEs&amp;lt;MaxFEs`" style="rhombus;whiteSpace=wrap;html=1;fillColor=light-dark(#fefee2, #ededed);strokeColor=default;align=center;verticalAlign=middle;fontFamily=Times New Roman;fontSize=12;fontColor=default;gradientColor=#E8FF31;gradientDirection=east;" parent="k4sQxNacNRU6vaHa-66G-135" vertex="1">
          <mxGeometry x="212.5" y="118" width="155" height="50" as="geometry" />
        </mxCell>
        <mxCell id="bWBGLmZI3f96l34fKNhn-205" style="edgeStyle=none;rounded=0;orthogonalLoop=1;jettySize=auto;html=1;entryX=0.5;entryY=0;entryDx=0;entryDy=0;fontFamily=Times New Roman;" parent="k4sQxNacNRU6vaHa-66G-135" source="bWBGLmZI3f96l34fKNhn-167" target="bWBGLmZI3f96l34fKNhn-171" edge="1">
          <mxGeometry relative="1" as="geometry" />
        </mxCell>
        <mxCell id="bWBGLmZI3f96l34fKNhn-167" value="Calculate `W_1` and `W_2` by Eq. (6) and Eq. (7)&lt;div&gt;Calculate `K` by Eq. (9)&lt;/div&gt;&lt;div&gt;Calculate `F` by Eq. (12)&lt;/div&gt;&lt;div&gt;Calculate `Fit^{\text{norm}}`&lt;/div&gt;" style="rounded=1;whiteSpace=wrap;html=1;fillColor=light-dark(#c8adf0, #EDEDED);fillStyle=auto;strokeColor=default;align=center;verticalAlign=middle;fontFamily=Times New Roman;fontSize=12;fontColor=default;gradientColor=#FFCCFF;gradientDirection=east;" parent="k4sQxNacNRU6vaHa-66G-135" vertex="1">
          <mxGeometry x="170" y="200" width="240" height="70" as="geometry" />
        </mxCell>
        <mxCell id="bWBGLmZI3f96l34fKNhn-206" style="edgeStyle=none;rounded=0;orthogonalLoop=1;jettySize=auto;html=1;entryX=0.5;entryY=0;entryDx=0;entryDy=0;fontFamily=Times New Roman;" parent="k4sQxNacNRU6vaHa-66G-135" source="bWBGLmZI3f96l34fKNhn-171" target="bWBGLmZI3f96l34fKNhn-172" edge="1">
          <mxGeometry relative="1" as="geometry" />
        </mxCell>
        <mxCell id="bWBGLmZI3f96l34fKNhn-171" value="Update `X_i^{\text{new}}` by Eq. (5)" style="rounded=1;whiteSpace=wrap;html=1;fillColor=light-dark(#FFCCE6,#EDEDED);gradientColor=#FFCFC5;gradientDirection=east;fontFamily=Times New Roman;" parent="k4sQxNacNRU6vaHa-66G-135" vertex="1">
          <mxGeometry x="210" y="300" width="160" height="50" as="geometry" />
        </mxCell>
        <mxCell id="bWBGLmZI3f96l34fKNhn-178" style="edgeStyle=none;rounded=0;orthogonalLoop=1;jettySize=auto;html=1;entryX=0;entryY=0.5;entryDx=0;entryDy=0;fontFamily=Times New Roman;" parent="k4sQxNacNRU6vaHa-66G-135" source="bWBGLmZI3f96l34fKNhn-172" target="bWBGLmZI3f96l34fKNhn-174" edge="1">
          <mxGeometry relative="1" as="geometry" />
        </mxCell>
        <mxCell id="bWBGLmZI3f96l34fKNhn-179" value="Yes" style="edgeLabel;html=1;align=center;verticalAlign=middle;resizable=0;points=[];fontFamily=Times New Roman;" parent="bWBGLmZI3f96l34fKNhn-178" vertex="1" connectable="0">
          <mxGeometry x="-0.2082" y="2" relative="1" as="geometry">
            <mxPoint as="offset" />
          </mxGeometry>
        </mxCell>
        <mxCell id="bWBGLmZI3f96l34fKNhn-180" style="edgeStyle=none;rounded=0;orthogonalLoop=1;jettySize=auto;html=1;fontFamily=Times New Roman;" parent="k4sQxNacNRU6vaHa-66G-135" source="bWBGLmZI3f96l34fKNhn-172" edge="1">
          <mxGeometry relative="1" as="geometry">
            <mxPoint x="290" y="460" as="targetPoint" />
          </mxGeometry>
        </mxCell>
        <mxCell id="bWBGLmZI3f96l34fKNhn-201" value="No" style="edgeLabel;html=1;align=center;verticalAlign=middle;resizable=0;points=[];fontFamily=Times New Roman;" parent="bWBGLmZI3f96l34fKNhn-180" vertex="1" connectable="0">
          <mxGeometry x="-0.1559" y="1" relative="1" as="geometry">
            <mxPoint as="offset" />
          </mxGeometry>
        </mxCell>
        <mxCell id="bWBGLmZI3f96l34fKNhn-172" value="`r_7` &amp;lt; `\theta`" style="rhombus;whiteSpace=wrap;html=1;strokeColor=default;align=center;verticalAlign=middle;fontFamily=Times New Roman;fontSize=12;fontColor=default;fillColor=light-dark(#fefee2, #ededed);gradientColor=#E8FF31;gradientDirection=east;" parent="k4sQxNacNRU6vaHa-66G-135" vertex="1">
          <mxGeometry x="212.5" y="370" width="155" height="50" as="geometry" />
        </mxCell>
        <mxCell id="bWBGLmZI3f96l34fKNhn-211" style="edgeStyle=none;rounded=0;orthogonalLoop=1;jettySize=auto;html=1;entryX=0.5;entryY=1;entryDx=0;entryDy=0;fontFamily=Times New Roman;" parent="k4sQxNacNRU6vaHa-66G-135" source="bWBGLmZI3f96l34fKNhn-174" target="bWBGLmZI3f96l34fKNhn-189" edge="1">
          <mxGeometry relative="1" as="geometry">
            <Array as="points">
              <mxPoint x="590" y="395" />
              <mxPoint x="590" y="520" />
              <mxPoint x="80" y="520" />
            </Array>
          </mxGeometry>
        </mxCell>
        <mxCell id="bWBGLmZI3f96l34fKNhn-174" value="Update `X_{i,j}^{\text{new}}` by Eq. (11)" style="rounded=1;whiteSpace=wrap;html=1;strokeColor=default;align=center;verticalAlign=middle;fontFamily=Times New Roman;fontSize=12;fontColor=default;fillColor=light-dark(#FFCCE6,#EDEDED);gradientColor=#FFCFC5;gradientDirection=east;" parent="k4sQxNacNRU6vaHa-66G-135" vertex="1">
          <mxGeometry x="420" y="370" width="160" height="50" as="geometry" />
        </mxCell>
        <mxCell id="bWBGLmZI3f96l34fKNhn-187" style="edgeStyle=none;rounded=0;orthogonalLoop=1;jettySize=auto;html=1;entryX=0;entryY=0.5;entryDx=0;entryDy=0;fontFamily=Times New Roman;" parent="k4sQxNacNRU6vaHa-66G-135" source="bWBGLmZI3f96l34fKNhn-175" target="bWBGLmZI3f96l34fKNhn-183" edge="1">
          <mxGeometry relative="1" as="geometry" />
        </mxCell>
        <mxCell id="bWBGLmZI3f96l34fKNhn-188" value="Yes" style="edgeLabel;html=1;align=center;verticalAlign=middle;resizable=0;points=[];fontFamily=Times New Roman;" parent="bWBGLmZI3f96l34fKNhn-187" vertex="1" connectable="0">
          <mxGeometry x="-0.1561" y="1" relative="1" as="geometry">
            <mxPoint as="offset" />
          </mxGeometry>
        </mxCell>
        <mxCell id="bWBGLmZI3f96l34fKNhn-195" style="edgeStyle=none;rounded=0;orthogonalLoop=1;jettySize=auto;html=1;entryX=1;entryY=0.5;entryDx=0;entryDy=0;exitX=0;exitY=0.5;exitDx=0;exitDy=0;fontFamily=Times New Roman;" parent="k4sQxNacNRU6vaHa-66G-135" source="bWBGLmZI3f96l34fKNhn-175" target="bWBGLmZI3f96l34fKNhn-189" edge="1">
          <mxGeometry relative="1" as="geometry">
            <Array as="points">
              <mxPoint x="190" y="485" />
              <mxPoint x="190" y="445" />
            </Array>
          </mxGeometry>
        </mxCell>
        <mxCell id="bWBGLmZI3f96l34fKNhn-196" value="No" style="edgeLabel;html=1;align=center;verticalAlign=middle;resizable=0;points=[];fontFamily=Times New Roman;" parent="bWBGLmZI3f96l34fKNhn-195" vertex="1" connectable="0">
          <mxGeometry x="-0.0756" relative="1" as="geometry">
            <mxPoint as="offset" />
          </mxGeometry>
        </mxCell>
        <mxCell id="bWBGLmZI3f96l34fKNhn-175" value="`r_8` &amp;lt; `Fit_i^{\text{norm}}`" style="rhombus;whiteSpace=wrap;html=1;strokeColor=default;align=center;verticalAlign=middle;fontFamily=Times New Roman;fontSize=12;fontColor=default;fillColor=light-dark(#fefee2, #ededed);gradientColor=#E8FF31;gradientDirection=east;" parent="k4sQxNacNRU6vaHa-66G-135" vertex="1">
          <mxGeometry x="213" y="460" width="155" height="50" as="geometry" />
        </mxCell>
        <mxCell id="bWBGLmZI3f96l34fKNhn-212" style="edgeStyle=none;rounded=0;orthogonalLoop=1;jettySize=auto;html=1;exitX=1;exitY=0.5;exitDx=0;exitDy=0;fontFamily=Times New Roman;" parent="k4sQxNacNRU6vaHa-66G-135" source="bWBGLmZI3f96l34fKNhn-183" edge="1">
          <mxGeometry relative="1" as="geometry">
            <mxPoint x="590" y="485" as="targetPoint" />
          </mxGeometry>
        </mxCell>
        <mxCell id="bWBGLmZI3f96l34fKNhn-183" value="Update `\beta` by Eq. (14)&lt;div&gt;Update `X_{i,j}^{\text{new}}` by Eq. (13)&lt;/div&gt;" style="rounded=1;whiteSpace=wrap;html=1;strokeColor=default;align=center;verticalAlign=middle;fontFamily=Times New Roman;fontSize=12;fontColor=default;fillColor=light-dark(#FFCCE6,#EDEDED);gradientColor=#FFCFC5;gradientDirection=east;" parent="k4sQxNacNRU6vaHa-66G-135" vertex="1">
          <mxGeometry x="420" y="460" width="160" height="50" as="geometry" />
        </mxCell>
        <mxCell id="bWBGLmZI3f96l34fKNhn-185" value="Target Refinement" style="text;html=1;align=center;verticalAlign=middle;resizable=0;points=[];autosize=1;strokeColor=none;fillColor=none;fontFamily=Times New Roman;" parent="k4sQxNacNRU6vaHa-66G-135" vertex="1">
          <mxGeometry x="445" y="340" width="110" height="30" as="geometry" />
        </mxCell>
        <mxCell id="bWBGLmZI3f96l34fKNhn-186" value="Early diversification" style="text;html=1;align=center;verticalAlign=middle;resizable=0;points=[];autosize=1;strokeColor=none;fillColor=none;fontFamily=Times New Roman;" parent="k4sQxNacNRU6vaHa-66G-135" vertex="1">
          <mxGeometry x="445" y="430" width="120" height="30" as="geometry" />
        </mxCell>
        <mxCell id="bWBGLmZI3f96l34fKNhn-197" style="edgeStyle=none;rounded=0;orthogonalLoop=1;jettySize=auto;html=1;entryX=0;entryY=0.5;entryDx=0;entryDy=0;fontFamily=Times New Roman;" parent="k4sQxNacNRU6vaHa-66G-135" source="bWBGLmZI3f96l34fKNhn-189" target="bWBGLmZI3f96l34fKNhn-166" edge="1">
          <mxGeometry relative="1" as="geometry">
            <Array as="points">
              <mxPoint x="80" y="143" />
            </Array>
          </mxGeometry>
        </mxCell>
        <mxCell id="bWBGLmZI3f96l34fKNhn-189" value="Boundary control of `X_i^{\text{new}}`&lt;div&gt;Calculate `Fit^{\text{new}}`&lt;/div&gt;&lt;div&gt;Greedy selection&lt;/div&gt;&lt;div&gt;Update `X_b`&lt;/div&gt;&lt;div&gt;Update `FEs`&lt;/div&gt;" style="rounded=1;whiteSpace=wrap;html=1;fillColor=light-dark(#c8adf0, #EDEDED);fillStyle=auto;strokeColor=default;align=center;verticalAlign=middle;fontFamily=Times New Roman;fontSize=12;fontColor=default;gradientColor=#FFCCFF;gradientDirection=east;" parent="k4sQxNacNRU6vaHa-66G-135" vertex="1">
          <mxGeometry y="405" width="160" height="80" as="geometry" />
        </mxCell>
        <mxCell id="bWBGLmZI3f96l34fKNhn-208" style="edgeStyle=none;rounded=0;orthogonalLoop=1;jettySize=auto;html=1;entryX=0.5;entryY=0;entryDx=0;entryDy=0;fontFamily=Times New Roman;" parent="k4sQxNacNRU6vaHa-66G-135" source="bWBGLmZI3f96l34fKNhn-193" target="bWBGLmZI3f96l34fKNhn-194" edge="1">
          <mxGeometry relative="1" as="geometry" />
        </mxCell>
        <mxCell id="bWBGLmZI3f96l34fKNhn-193" value="Reture `X_b`" style="rounded=1;whiteSpace=wrap;html=1;fillColor=light-dark(#d7cab7, #ededed);gradientColor=#FFFFCC;gradientDirection=east;fontFamily=Times New Roman;" parent="k4sQxNacNRU6vaHa-66G-135" vertex="1">
          <mxGeometry x="210.5" y="540" width="160" height="50" as="geometry" />
        </mxCell>
        <mxCell id="bWBGLmZI3f96l34fKNhn-194" value="End" style="ellipse;whiteSpace=wrap;html=1;strokeColor=default;align=center;verticalAlign=middle;fontFamily=Times New Roman;fontSize=12;fontColor=default;fillColor=light-dark(#d4cbbf, #ededed);" parent="k4sQxNacNRU6vaHa-66G-135" vertex="1">
          <mxGeometry x="255" y="620" width="70" height="30" as="geometry" />
        </mxCell>
        <mxCell id="k4sQxNacNRU6vaHa-66G-171" value="" style="shape=image;verticalLabelPosition=bottom;labelBackgroundColor=default;verticalAlign=top;aspect=fixed;imageAspect=0;image=data:image/jpeg,/9j/4AAQSkZJRgABAQEAYABgAAD/2wBDAAgGBgcGBQgHBwcJCQgKDBQNDAsLDBkSEw8UHRofHh0aHBwgJC4nICIsIxwcKDcpLDAxNDQ0Hyc5PTgyPC4zNDL/2wBDAQkJCQwLDBgNDRgyIRwhMjIyMjIyMjIyMjIyMjIyMjIyMjIyMjIyMjIyMjIyMjIyMjIyMjIyMjIyMjIyMjIyMjL/wgARCAE/AYYDASIAAhEBAxEB/8QAGgABAQADAQEAAAAAAAAAAAAAAAECAwQFBv/EABkBAQEBAQEBAAAAAAAAAAAAAAEAAgMEBf/aAAwDAQACEAMQAAAB+/FBQUFBQUFBQUFBQUFDAM5x8/Dh3auW8eW3HBjGbFW3ZzXeu3d5l6dfScvT37Ub2FBQUFBQUFBQUFBQUFBQUjzuXLdyr4/JKucyilMLMUxUyjdW/wA7d379Y9HoCgoKCgoKCgoKCgoKCkvBz546zw+IqimFWVZlGKmKYqoqdnXwbu3XpHo9AUFBQUFBQUFBQUFDixiaF8PilUBVlVZRilKqUUqpRSqiq6dnH2ej0B06BQUFBQUFBQUFE4efO6F8XjFgpSlKkphVlFKoVYqpSgZv05a30j0egKCgoKCgoKCmOvh48c9a+TyKUoqiqqyiqKVRShRSyrUU0VMVXSxej0ZhQoKCgoKJzYx08eieXzC8uKiqKqqKoqiqKorSklKFFNFSFBW1HbttGtBQUFGjl5cu/l5Hm8+Ul48VFpdKiqqiqKpSqKUpSi1KKLUUotRVRVZK69dg1oKNHn8OHbyar4/KsuMUulZVVVF0qKqqKqiqKoqilKLUopVApVRVRVZq6dMhrTgx5fD41l8vlVVWXSqqLpUdUulRaVRVUVRVFUVRipBSqBSqiqCtiunRy9Xj8OOunzvn0ulZXVLpUWl0qLSulNNKqyqoqiqKoqjFSKspQMVMpSzJchvejyu3i+b8+2XjxUW2XSotsulVdLLpVVWVVXWhVUVRVFUZSRVClFChailmzHJQ1ry9GzX8n5amc2y6VFtl1pVVZdNK6U02yqotKqy6VlVSVFFUVgkWpRQoZNRrYV4+G3V8j5VstKLbLppVWXTbLrSqqyrS60sqqLQtKoqiqKwSKoULUorIUFCvL09fJ8v5qy4xbLpUW2XWqVVNNsrql0rKtKqy6VlWh1Q1EqKKwSUwSyFBQoK5vO9nx/D4g83ntl02y60qqsum2V0pptlWl1pZVoWlVZVWVVlUKoVZaGSyigoUFBTzvR1cuXl2X53z1Ftl1q2XSqull02yqprVsq0LbKqyqotC0qy2rjcmmUkFCgoKCgoK4eX1/N8Xj1l4cFlW2XTbK6U02yurZdKyrbKqy6aZOpc8t7wuTWgUKCgoKCgoKCgoKY5A83X63H5PLzDjwtldWy6bZVWXWrZVoW2Z61jnnn06Y5G9goUFBQUFBQUFBQUFBQUFYc3Y58/Melr48uK9GOcarnKxueS67tz3vRs3Xp0wzN7BQoKCgoKCgoKCgoKCgr//xAAjEAACAQQCAgMBAQAAAAAAAAABAgADEUBQEjEhMBATMyAE/9oACAEBAAEFAs29oaqz7jPsacmnJpyafY0FUwVFOmLBYapnfqBtBVgN9D1Gq+8eItS+eTYM3I4KvbN6jvyOGrWzHfljI2VUe+QhuMd3vkjwcZ6l8tD4w+o78sxfBwiwUM5bOHWA9QLCSc9evcSBGq30K+3qNWhJOiX1lgIa0JJ0i9+hqqiGqx06/wBtWAjOzalf5eqFjOW1Y/ipWvrR18Val9hWfiutHy7cm1o+KxtT2H+g+daPmt+mwqfpsH/TYVP02Fb9NhXHnYVhdNgRcbGstm2DryXOtLYVVLHJtLY3YdOBxbS2URcMhXDAls5qWABeBdCVDQ0jOvWFMC6Y01n1T6zODTiZxM4GcJwGg//EACYRAAIBAwMDBAMAAAAAAAAAAAECAAMRMBIxQBAhQQQgMlETIkL/2gAIAQMBAT8Byk2jVx4hrMZqb7lzA7DzBWPmK4bbg1KmiMxbfAlXwc7vpEJubnFTe3Y5XcKISWNzkRrjG7hYSWNzlU2OJ6oXsITfuc4297OF3j1iduCu3taqqxq7Hbhrt1esqxqrNvxRt0rVv5XkV30rbjjpXN3446P8jyW+R5NUWc8n1K/tfk1U1LwLS2GtTsdQyBZbK9G3dcAgT74LU1aGgfE/G00maTAhgpy1s/8A/8QAJhEAAgEDAwQCAwEAAAAAAAAAAQIDABEwITFABBASQSBREyIyQv/aAAgBAgEBPwHKTamnHqjM5ryb7q5oOw90s590rhtuDJIEpmLb4El9HO7hBRJJucUb20OV3CiiSxuciNcY3cLRJY3OVTY4pJQugom+pzjb5s4XenmLbcFdvi0yrTTsduGu3eSdV0ppWffijbtNP/leR1Enithxx26hrvxx2fVzyW/o8mUWc8nqV/a/JlTyXgWq2GeOx8hkC1bLJBbVcAoJ98Fo1ajAfVfjavE0FNBDQjq2f//EACEQAAEDBAMBAQEAAAAAAAAAAFAAASERMUBhAiJRcRIw/9oACAEBAAY/As71QyururururqWDyo/nClQC64E59cOc7WJrM1jUyqNYhRrEKNYhofJDakdKgf1UjZddVI31eDolS4711I+nEh+WsQo13Iu5D6RZiLkeRHl9I8iLkWcj8I0JV9I0JfolojR1ol1JSokpcP/AP/EACgQAQABAwMDBAIDAQAAAAAAAAERACExQEFQMFFhIHGBoRDwYOHxkf/aAAgBAQABPyHWoEqFCxPsp2A96X7K/wBqv9Kj+6oGmyGspb3oRJGeFzz4p1jFKqVnpIroptvyUBlTwKglYKdt/wBVlv1kqRiissdeDLFPNtsaJrMKzrFBLik8TGkdw6tgmp0H9tNBdjVfrE6iyOTUfvE6lQNZ0uK/aJ1ckO2kUErBS2FtYUOjmCpm+O2uUh0NgL0VlS8diyoKay04Hf1VBKwUBYT5aVlTwWb08WFbY+WlZU8abjLxWNs8Vm7w2XqUCWrIZd67CduJ3emxnsUnd8cXj6E2J35Any+Xn+PBGX4xX0ZyCW72cj9j5Ep8VuOPzd7nGh6PuOR+xyIjzcj72I5G893ER0ZtblJCjk4WKjp+BcEio60/u210OkLQw51U6hUaVBBw0n0nTCaDqjiLU732OjRoJrUEhxTl7jtWOulAPPA4580ShFQkdNXigPPCoOSaRtHtT2Uj7NQbVBtR26KR7tAeaAMGv//aAAwDAQACAAMAAAAQ8888888888888/1quWImz8888888888888888z4rmVK1C1/08888888888888zm2VZqlC9Dyv8888888888884qraql0TsXsAzb8888888888v6dVUWTLs3IWvNQ888888888kZFllhkk3QP0rRw0w8888887CZFnjbbYYJnQPR8OPM88888TvnZljbfXHUQLsb0KTzw88lKuQMyZl7bnnnk0bszMQz/AA/CrMyc2dmJGW555pJc3NzMMhz8N0bkJmZ2pGDpppJJc2IjcIBPFCJidycjMz8GJJJJZ+D4D+8L/CNydzM7WtC50ybZ5+GRu5DuXPNyNiE/SMT0KJn2mmGRuDu4N/PILgNzEtSkL0ybVFR5uXsRJ/PPIF7wMrQtL0KFmqqKHxKy3/PPPPSd7gcvA9KF679xw45T/PPPPPPDEPrQtfgPw7UBHHPPPPPPPPPPPwlfCA/Cl6Lv/PPPPPPPPPPPPPPD+qRM/DP/ADzzzzzzzzzzzzz/xAAhEQEBAQABBAMBAQEAAAAAAAABABEhECAxQTBRYUCR0f/aAAgBAwEBPxD5QGsPg7eyyU8qPuvDQ3jt5J/CA+2W1WWWWWWRxyX/AEfnPZ8yN5ILLLLLLLLL8B8uiemAIILLLLLLLLLiHyfGbz56YAgggggssssssuY+L3gyL2QQQQQQWWWWWWWWT0PeFquB4EQQQQQQWWWWWWWWWd3x26/lwnC1XWCCIIIIIILLLLLLLLOy405bzbiIiCIgggggggssssss6HoVVOPuIiIiIiCCCDpllllnXIMLjHliIiIiIiIIiIOzOo16bp9REREREREREdc7T76PW/WIiIiIiIiIjvDqP9GIiIiIiIiIiO4M64D9iIiIiIiIiI7g7MB94iIiIiIiI6nUIM7dMPMRERERERERBCiAHwfXDEREREREC+JPcE+RBMZ/YIiIiIgvjpADx/ByCcwPKQ9WPkhfUv1AeWBwPn//xAAiEQEBAQABBAMBAAMAAAAAAAABABEhECAwMUFRYUCRsdH/2gAIAQIBAT8Q8oDVh8Hb5DJT2o+69NAeu3sn8In2y+qCCyyyyOOS/wCj59w+75EQQQQWWWWWX4Dy6J6YAggsgssssssuIfZ4zeffTAEEEEEFllllllzHi+UGR/JBBBBBBBZZZZZZZPQ95eq4TiQQQQQQQQWWWWWWWWd1xW6/lwvC1XWCCCCCCCCCCyyyyyyzsuFct7px9RBBBBBBBBBBBZZZZZZZZHodVePliIiIIggggggggss6ZZZZBhJ84xEREQREEQREHXOmdRr02z64iIiIiIiIiI8B6PR+sRERERERERHeG9T/AJGIiIiIiIiIiO4M65r9/wBxEREREREREdwdmQ+8RERERERER2hBnbth7PUREREREREREKIGeD6YYiIiIiIgX1J8wTyIJjJ8giIiIiC+ugAPX8HMJzA9rH2WPsk/EuA9sA9ef//EACoQAQEBAAECBQQCAgMBAAAAAAEAERAhMSBBUWFxMECBoZHBUPDR4fGx/9oACAEBAAE/EPvcoj1XLpej2dJ/ZPdt6FewS/8AUi/9vD7fm1eqPkIX6Ry6Yl+ywQHqP+FJ0R8h3bfAfV6tvEvVds4yyyyyyy0yr2idND8ljAPb/AuRB3W0Okevv+JVFKvdbOMsssssssssstcl7WBn5D5P37w4J8lD+CDjLLLLLOMsss5yydGX1+ZCAR0eyfeOWAdVbpLTsP74yyyyzjLLLOMssssssu8hfqEQR0fP7pREgHVWbfwvT+0QQQQcZZZxlllllllllllv36uz6fcqAq4FpW6e7wyyyzgIOMsssssssssssssurH9x9uoCrgTtfB3f9doIIIOAg4yyyyyyyyyyyyyyyycny7wgE7P2qgVQDusjXzzP+u0EEFnAWcBBBZZZZZZZZZZZZZZZbD79nx9o5MHdZ3rj5evzEEHAQcZZZZZZBZZxllllngyy1Hk9H7NhkPI828gj2HlBBBwEHAQQcBBZZZZZZZxllllllnHuQfY6ufp+R8zNiRBEQQcBBzllllllnGWWWWeDLLJbj0c+uxJ7lr7ev5v/ABwQREEcBBwEEWWWWcZZZZxlllllllk+h+PquBB5rbGh+D+LZte8RBEQREEEQQchBxllnOWWWWeHL9L6YO+0Pf8Ai73+k9LfNe/YiIiIgjgIiCDjLOQg5yyznLLLLLOO98fQ7G2uHsOv924Z/mfzKpRV82IiIgiIIiCIIiCDjLLOAss4yyyyyzw9/wCPEiQA7qzz7odD/uUdPY6ERERERERwREREERBBxllnGWWWc5Z4R1Xh3fiXY+bTOnkOgRERERERERERERBHAQcBBzllnGc5zllkep9+VAVcDusgs9l878cERERERERERERERERwEHGWc5xnGeDLLI4OUboPceb/AIiIiIiIiIiIiIiIiII4OQ8OcZxngyyyDAOHBM/QRERERERERERERERERwRwEePOc4yyyGn24UCrgdVkV7L+B5REREREREREREREREcEcEeLOM4zwZZHBeMWPkf7/URERERERERERERERHBHBHJ4s5zwZBgHGvpBX5/8iIiIiIiIiIiIiIiIiOCPrZyNd9Oc96D9N/uIiIiIiIiIiIiIiI4OCOTx54cs4GGcvV8YiIiIiIiIiIiIiI4IiOCI+lng87wf6D1iIiIiIiIiIiIiIiI4IiI+pnAa3bwHPmsREREREREREREcHBERyckfS7wYeHVegf1/1EREREREREREREREcEREREfSCDPFl6w/g/8AcREREREREREREREREcnhOTg5D0gzx9NnUH8doiIiIiIiIiIiIjg4IiIiI8BwcmoM+gHYiEhjExIiIiIiIiIiIiIiODk8JHhEwD6fS50N/PnERERERERERERERERERERyQnyj1sAfVyzt6/KxFExIiIiIiIiIiIjgiIiOTgTyhebA8+sAdj7HcPrfgxERERERERERERwRwQK9DYTv0gu/WAdj7Uw9DEnB1VBEREREREREREcHHaTp6sDv1YA7H3KfQrrPqf6MRERERERERERF2Uw9W7z1ff71EAruNs/Me58WKRETyYiIiIiIiIi7MdPVuovV/gTfM9HRtdYPTs2sS9EiIiIiIgXoXcDHvd36vf8AwouEPRNuyp+6x/8Amk9l+JnvP3J7r9iT2/cldwPlvJJ8G3ct+TC4B8H3/wD/2Q==;" vertex="1" parent="1">
          <mxGeometry x="1670" y="3020" width="390" height="319" as="geometry" />
        </mxCell>
        <mxCell id="k4sQxNacNRU6vaHa-66G-174" value="" style="group" vertex="1" connectable="0" parent="1">
          <mxGeometry x="870" y="2620" width="660" height="670" as="geometry" />
        </mxCell>
        <mxCell id="k4sQxNacNRU6vaHa-66G-173" value="" style="whiteSpace=wrap;html=1;strokeColor=none;" vertex="1" parent="k4sQxNacNRU6vaHa-66G-174">
          <mxGeometry width="660" height="670" as="geometry" />
        </mxCell>
        <mxCell id="k4sQxNacNRU6vaHa-66G-172" value="" style="shape=image;verticalLabelPosition=bottom;labelBackgroundColor=default;verticalAlign=top;aspect=fixed;imageAspect=0;image=data:image/jpeg,/9j/4AAQSkZJRgABAQEAYABgAAD/2wBDAAgGBgcGBQgHBwcJCQgKDBQNDAsLDBkSEw8UHRofHh0aHBwgJC4nICIsIxwcKDcpLDAxNDQ0Hyc5PTgyPC4zNDL/2wBDAQkJCQwLDBgNDRgyIRwhMjIyMjIyMjIyMjIyMjIyMjIyMjIyMjIyMjIyMjIyMjIyMjIyMjIyMjIyMjIyMjIyMjL/wgARCAFoAZwDASIAAhEBAxEB/8QAGgABAQADAQEAAAAAAAAAAAAAAAECAwQFBv/EABgBAQEBAQEAAAAAAAAAAAAAAAABAgME/9oADAMBAAIQAxAAAAH78AAAAAAAAAAAAAAwTNxc/THfp5XTG7HW1M8tRN+zlZ16G3ys8a9JzdHPpRKAAAAAAAAAAAAAAAAmPn7xv5TvyC5KWUgolApZlEdu7zOjl06xz6AAAAAAAAAAAAAAJfO1nHA9PAUFiUBVlAIKIoA3dnnb+fTqHLoAAAAAAAAAAAAOO5x519PCUFAVQgolApZSCiKJQ6t3B3cutGNAAAAAAAAAADmsnGvo4C2CrKBUCkpKUAFEUoQKTdqS9yXj1AAAAAAAAAHJZlxno4FWCqLEoKKVApFKLEUCkURRKLv3c3Ty2GdAAAAAAAGHDrOznPRxURRRYFUWAFFKgUigWWKJQAKJ2cnVjVGNgAAAADTZu5ubX15VL1wpCiiwKpUCgssqkopUAFEpApFLFE6NG/NzGNgAAGPNc9ejhx689uuXrgUFhRRYFVSClKgoFllAoFiUUUiiUgBu07pcxjYA47nq4+V35WHTFLALSwKosCqpCiqQoFSigsSilAQURSgAN2nfm0Z0weX0xnqPRwUFlFIUVSWiKUWWVZVUhRVIUCpRQIKUAolIFIom/VtzpLxpzal9fmFAWlgVVlhRVIVZRQWVQUlUFJVAWAUoFiUAUoii7McsV4/o+Z35LL25KSrKKQpLSqLCyqpFLKKLLKsopKoCwKoQoCrKAQAWmYzri4ujn9Xmo1mhaWBVWWFFUi2WVZVUillFFllUBYFUWAFFCCgABnjnKEvlatmHs8qyosqrLCyrSyiwsq0RSyrKKS0sCqLAqiwCqAsAAFEqy2koHk4bdXr8qlKFEtLCyqssUsqyqpFLKsopLRCiqQoKKLAAoEoDOWAUDzufs4/V5qNSlgVVliiWlVSKJbZRSWlhZVWWFlVZYWVRYAFAlFFWAUADR5vseR34h152ywsq0S0sLKtEWyyqS0ossqkULRFC0QoCgSqpMiUAAAB5/oatZ8yy+rzrLCi2yyrLCrKsqqRbLKspRLSwKqywsqiwWmNysuNqUAAAAAADztPqeZ6OAbxSyrKqyxbLKsq0sLLKpFsqrLCyquWebryzS45EoAAAAAAAAADTuWeS7+H0cFlsWVVItllUltlFllpYWVVy25uGdY0CgAAAAAAAAAAAAMMyedh6mjrz4rs19MUFsstEtspRLbntzrVtyY0EoAAAAAAAAAAAAAAAADETVrNTGGs2lZZmNZ5mbQoAAAAAAAAAAAAAAH//xAAjEAACAQQCAgMBAQAAAAAAAAABAgMAEUBQEjEQMBMyMyAh/9oACAEBAAEFAtAZVFfNXytXNq5tXNq+VqE1CRTqSwWjNRJPqDEUstXvpOqaX3gkUsl9EzcQzFsJZNATYM3I4aPbPd+RxUa2bI98hGvlyPkj/CDcZEj5cZyJJLZo/wBGLJJbOTrEeTPX7YbyX2TMFpnLaIde9pa70a/X2tIFpnLaVevW0qimkZtOvXoJAppqLFtSvX9FgtNMa71a9fy01XvrR15Zgody+yZgoZix2PVO3NtePM7bEeWPJtlKbR7AeZzsR5m/TZyfps3++zf77OT9NnN+mznG0lF49n2Ojs5hZtnIvJNDbDlXi2ZarYzLyBFjkWq2VInIY3HOePlXWGFq1tAyhqZCuABegLaQxg0UI9gU0FA1BUGviFfGa4NXE1Y1xNcDXCuA0X//xAAgEQABBAEFAQEAAAAAAAAAAAABAAIRQDADEiAxURBB/9oACAEDAQE/Ac5eFvKkqStxQf6gZpOdCJnA13tBzoxtOYmETORpyEwiZyjGTCJnO3CXQiZoN5zCL/KQ4kgI6nlQfSQEXk1h8c+LARMC1qH8tP7tHu0e7Tu7WoLThItvbGaMhEotjFFEs85woqbQtqhbaX//xAAiEQABBAEDBQEAAAAAAAAAAAABAAIRQDADEjEQICFBUTL/2gAIAQIBAT8BzjTPtDTC2hQFtCOn8RBFJrJQAGBzPlBrZxub7zNEoCMjhkAlARlPnGBKAjO7nC1koCKDu8CU3T+0ndoaShpfVxTPUNJ4TdMDmsejGblEVymiTC4sFaQ92mfmweg4tDi0z82tI+ItMMG2x0jLKnIDCa6cUqaA1PveSpqbyg4rctxU0f/EACMQAAAGAQQCAwAAAAAAAAAAAAABESExUEAQImBhMFECEnD/2gAIAQEABj8CoWLSRJidHITUuGD+Jg9Nt87DuiXDQ6BcVDjP6xkzUKMhMtCs0LLTIQrNCs0+NmhRZPZ7bL3ZM9i42hzsHG2y22SmOrJQp8m+toZ8nIuUHaHaHaHygj/HV98p6O0QJad2vfK2a2gTpAgQIpf/xAApEAEAAQIGAAYCAwEAAAAAAAABEQAhMUBBUFFhECAwcYGRobHR4fHw/9oACAEBAAE/Ic+oErFalPtS/wCWldQ+K79f6Vd+g+H4r+hrgHvtJV1M4Y7aRlL6WNorRPyUASMmyKCVgrT+1KrKy+s7KorW2xCnfVK3w4yUXDzsAMsKad+DKf8AERnlglwr2phlp08NM7L/ANGYiSxM3P8AncyrhQSGZh59XNwPbMdj1eM4WZpQOW7Hq8Z53GV1z3c+492TUCXCl0v7bAWZyQl3xTN8ONiw8gZa55pVSsu41mLuqxJtxuHhXKFYgwcGz/u9EWUFDgPlrWjcIqVFKsI7aVUrLuCoEuFaf3pSlZdtwPLoWvbht+njO3wbgMC/ioFcClk00Nwx+NkHu7jh8FglrtDcdPCe7tuIv43vm3EW8VK6NwCXyX+7uAW8n5+3h5fz90Mbdh5hHuNtDz/otsD0Jjq+6JIOtJIOm0R6nStlRUetIGpc2EPBGSuhnAoVQqMqCqkZYmZHQM1djBURZyxyoAwzpXlv2pFQkOTR6oGDYBb481i1znILQdkc8Vo8nXplKxttIYkKdBFOmjUFO1Xe+q7VHDQ9UoDG9AGBsP8A/9oADAMBAAIAAwAAABDzzzzzzzzzzzzzz+tHS3Lvbzzzzzzzzzzzzzzzzz2A3C9O8DJfTzzzzzzzzzzzzzyYTgudiQ/P02Dzzzzzzzzzzzzz9madg5O3S5PO/jzzzzzzzzzzzzpsiRMm5M9Hw4rbzzzzzzzzzz6FNhu2TMnRr8nH2zXzzzzzzzyoAeBtho2RYnUrK40HHzzzzzzmegeBtxNlqmTIxGctb7vzzzzsshhsBtyfTZFqzEu5jG883zzNgRNxNhtyeSaXJkuzE/PYwwryASKieTRdksyaSaFbk/IzCYsMbtttRNguSfpl6WaWaFszAuczDD96yKieZBuydpmqkaXtgediA57dx59RNguTUuzdpk6Htht+A7IY1zzisiuxBuxVq2ZNhthNyRoZ3GLzzaKVROi9qzdonYeSbeToXkI6/wA89UTYrWQnWpmTprovoaF5G6f8888ULoUTsVu2ROnUXcWm5Gku88886Ir0AryI3KpUTYLo6Rt+8888888tXTo/D8Rq3prszMu8888888888t9Do1r2p+Tp9f8APPPPPPPPPPPPPL751a1qVAHPPPPPPPPPPPPPPPPPPI3vwAn/ADzzzzzzzzzzzzzzz//EAB8RAQACAgMBAQEBAAAAAAAAAAEAERAwICExQEFxYf/aAAgBAwEBPxDcodsF53FZd+z/AEgf7F/EHx8Q/wBxfXM6n4/AAxVbdVfTuMWxFbssKdgC2MrdqpvWItju3XUqVhWaT/qIrfnIFsd6+FU98fUYjCr27q4+8m9zzOvm94LqexVbfod9FVt+g8ncQczJtMK3DgfGGPTmZNtZHbgaDWZNPgcTaHDuHkcTVWiDJxMmQlStFizzBkwcSAwitYCmM4Q4HATADeglOEie4MGBsAfGg+xaIIGAgB58P//EACARAQACAQUBAQEBAAAAAAAAAAEAEUAgITAxQRBRYXH/2gAIAQIBAT8Q5gXYjvxA97wHyfyi/kH1O0wm3+Q2jW79z1wDP+QAKOK7ZzK6IAo13prbOR3RDNHDegUrjd0QzRx3oFcJP8wBRy39/etFRAN8J009SQiABRh9frNR+oxuvxdz1ACjIqUACjIW823IL8NDIXzqynsx1+uxjLo3mIuXp3/BuXL4NoezlRGLeNFZBPEkinnFGyeUCO5pYJFuGKdQH2KioyU94P8A/8QAKRABAAMAAAUDBAMBAQEAAAAAAQAQESAhMUFRMGFxQIGRwVCx0fCh4f/aAAgBAQABPxD6/BAeVybgJ+yO6B7rZ0b4H+otUwP92M6g/J/if6inL+Z45IImjp/Ebozwd2bwY+RmoJ7sysvLyI6vs7fiA5i/46QoJO5/CORB1WO6eHmf0REpOqsysrLyZeTJogP/AIzD/XP8Es5vY8mb94Og6EysrKyZeTJnBkfKr2dx8wRBHR7/AF784Is5R08BWVlZMrJky8vJkyO9NUCII6Pf60GQAarFxNOk8+95WTKyZeVkyZMvJk5w83V4frOk2n5Xm+X+cGTKyZWVkyZeTJkyZMmTn7yuT5Pq+abl0Lv7VlBWTKysmVkyZWTLyZMil1iEuk/U883gHb2sLCsrJlZMrLysmTJkyZNVvLmPn6jCp/0fmdaCs4MmVkyZeVkyZwZMmRIDqOkEHon0wFT2n/Oc682goOAKyZMrKyZMrJkzgyZMm6ezp9L1vaD+uHLyZQXlZMrJkysmTJkzgyvHJ9GiQB1WbGnce8EKzgCg4cmVkysmTLyZwpHwdhzN+h0/M7DqzsAeghCjgCg4QrJlZMvKyZMmTJkyZFq+3rqBq4HebOX4J8eY4UnVYQoooKDgCsmVkysrJkyZeTJkyZFo9t9bcT2eg+WI9LwdIQsoohDgCgrJlZWTLyZMmTJky+t8+moFUA7s0T7Lp+Zon2UIQshRRCHBlBQVlZMvJkzgyZwdf0WWZ7sFul+x+Iprezsfag4CiiEIUQKCsmXkysgTLy8mcPV+ePNvwO7NnB+RjxSd1hCFkKLKKIUFBxhM4cvJnCMHCiQB1XtOsX3n9EauTqrCiiEIUWUUQoKDiCBx5ecGTIc+LgTp8B1ZzQ8B6Qso4CFEKIQhQUcQTOHLys4cmQMB4tl8PcWIE1eh2CFFEKIQohCECFEIFFlZA9HLyZMmTJk2J725WBqxw+R5eIosohRRZCFEIUWUED0MvJkyZM4Bu/BeKfN/D2KKKIcBCEIUUQohZRA9LJkzgzgGb80CJgGrEV7t+3aiyiEIUUQhCEKCEIQhCB6ITJl5eTKyBgKwI8+X+/8AyEKKIWQhRCEKIQohCEIFnEHFnBkyaa8X9gq/r/aLKIQhRCEIQhCiFlBZDgziy84MmHyvNeA/f7ohRRCEIQhCEKIQhCEKCEIcJ6eccLX8IUQhCyEKIQhCEKIQhCHGQ4s4srL3PBzfP/uFlEIQhCEIQohCEKKOEoh62zvY4Rnz/wC4QohCFELIQhCyEIQhCEIQoh6mQNcgYZw4H338kIQhCyEIQoohCEIQo4yFnoZWTA9+LcfA/r9WUQhCiEIQhCiEIQhCEIQhCFnp4c3rx875F/35sohCELIQhCFEIUcJRCFno4devoakObIKIcBCEIQhCEIWQhCEIQhCyHGQFgZ6J9BBGP1EsaIWUQhCFFEIQhCHEQhwHCCw8/U5KORv3IQhCEKIQhCEIUQhRZCEIWQsofflAnv62cGyCiEIQhCEIQhCEIQhCEIQohDgR6EF3YE95mdPodEu4ez3KIQhCiEIQhCFkIQhwEIF6GzuuUC66wB0Ppe810fDBpxOcIQhCiEKIQhCEIQ4CBryiuvKC9/mdPqQ5CdL3PEUkETkjRCEIUUUQhCiyArhGefIeILyfWgcsfx8o5cHUaIQhRCFEIQoonMHkhHJ9/4DOHB0HUjKj2XSEIQhCEKIQhRObZh5Z0Y18v8ABppj0m6/YdPxNpfec0IQhCEKIQK4Gs5pyPecwzXy/wAR1WPnox3/ALHOCeRfOR7w/CTPr+OH/wBtBn9UT4/KTs18c514wLgHx/A//9k=;rotation=-15;container=0;" vertex="1" parent="k4sQxNacNRU6vaHa-66G-174">
          <mxGeometry x="389.5" y="325" width="240.33" height="210" as="geometry" />
        </mxCell>
        <mxCell id="k4sQxNacNRU6vaHa-66G-137" style="edgeStyle=none;rounded=0;orthogonalLoop=1;jettySize=auto;html=1;entryX=0.5;entryY=0;entryDx=0;entryDy=0;fontFamily=Times New Roman;" edge="1" parent="k4sQxNacNRU6vaHa-66G-174" source="k4sQxNacNRU6vaHa-66G-138" target="k4sQxNacNRU6vaHa-66G-140">
          <mxGeometry relative="1" as="geometry" />
        </mxCell>
        <mxCell id="k4sQxNacNRU6vaHa-66G-138" value="Start" style="ellipse;whiteSpace=wrap;html=1;fillColor=light-dark(#d4cbbf, #ededed);fontFamily=Times New Roman;container=0;" vertex="1" parent="k4sQxNacNRU6vaHa-66G-174">
          <mxGeometry x="285" y="10" width="70" height="30" as="geometry" />
        </mxCell>
        <mxCell id="k4sQxNacNRU6vaHa-66G-139" style="edgeStyle=none;rounded=0;orthogonalLoop=1;jettySize=auto;html=1;entryX=0.5;entryY=0;entryDx=0;entryDy=0;fontFamily=Times New Roman;" edge="1" parent="k4sQxNacNRU6vaHa-66G-174" source="k4sQxNacNRU6vaHa-66G-140" target="k4sQxNacNRU6vaHa-66G-145">
          <mxGeometry relative="1" as="geometry" />
        </mxCell>
        <mxCell id="k4sQxNacNRU6vaHa-66G-140" value="Initialize the population `X`&lt;div&gt;Calculate `Fit`&lt;/div&gt;&lt;div&gt;Update `X_b`&lt;/div&gt;" style="rounded=1;whiteSpace=wrap;html=1;fillColor=light-dark(#c8adf0, #EDEDED);fillStyle=auto;gradientColor=#FFCCFF;gradientDirection=east;fontFamily=Times New Roman;container=0;" vertex="1" parent="k4sQxNacNRU6vaHa-66G-174">
          <mxGeometry x="242.5" y="60" width="155" height="50" as="geometry" />
        </mxCell>
        <mxCell id="k4sQxNacNRU6vaHa-66G-141" style="edgeStyle=none;rounded=0;orthogonalLoop=1;jettySize=auto;html=1;entryX=1;entryY=0.5;entryDx=0;entryDy=0;fontFamily=Times New Roman;" edge="1" parent="k4sQxNacNRU6vaHa-66G-174" source="k4sQxNacNRU6vaHa-66G-145" target="k4sQxNacNRU6vaHa-66G-169">
          <mxGeometry relative="1" as="geometry">
            <Array as="points">
              <mxPoint x="630" y="153" />
              <mxPoint x="630" y="575" />
            </Array>
          </mxGeometry>
        </mxCell>
        <mxCell id="k4sQxNacNRU6vaHa-66G-142" value="No" style="edgeLabel;html=1;align=center;verticalAlign=middle;resizable=0;points=[];fontFamily=Times New Roman;container=0;" vertex="1" connectable="0" parent="k4sQxNacNRU6vaHa-66G-141">
          <mxGeometry x="-0.9359" y="1" relative="1" as="geometry">
            <mxPoint as="offset" />
          </mxGeometry>
        </mxCell>
        <mxCell id="k4sQxNacNRU6vaHa-66G-143" style="edgeStyle=none;rounded=0;orthogonalLoop=1;jettySize=auto;html=1;entryX=0.5;entryY=0;entryDx=0;entryDy=0;fontFamily=Times New Roman;" edge="1" parent="k4sQxNacNRU6vaHa-66G-174" source="k4sQxNacNRU6vaHa-66G-145" target="k4sQxNacNRU6vaHa-66G-147">
          <mxGeometry relative="1" as="geometry" />
        </mxCell>
        <mxCell id="k4sQxNacNRU6vaHa-66G-144" value="Yes" style="edgeLabel;html=1;align=center;verticalAlign=middle;resizable=0;points=[];fontFamily=Times New Roman;container=0;" vertex="1" connectable="0" parent="k4sQxNacNRU6vaHa-66G-143">
          <mxGeometry x="-0.0404" y="1" relative="1" as="geometry">
            <mxPoint y="-3" as="offset" />
          </mxGeometry>
        </mxCell>
        <mxCell id="k4sQxNacNRU6vaHa-66G-145" value="`FEs&amp;lt;MaxFEs`" style="rhombus;whiteSpace=wrap;html=1;fillColor=light-dark(#fefee2, #ededed);strokeColor=default;align=center;verticalAlign=middle;fontFamily=Times New Roman;fontSize=12;fontColor=default;gradientColor=#E8FF31;gradientDirection=east;container=0;" vertex="1" parent="k4sQxNacNRU6vaHa-66G-174">
          <mxGeometry x="242.5" y="128" width="155" height="50" as="geometry" />
        </mxCell>
        <mxCell id="k4sQxNacNRU6vaHa-66G-146" style="edgeStyle=none;rounded=0;orthogonalLoop=1;jettySize=auto;html=1;entryX=0.5;entryY=0;entryDx=0;entryDy=0;fontFamily=Times New Roman;" edge="1" parent="k4sQxNacNRU6vaHa-66G-174" source="k4sQxNacNRU6vaHa-66G-147" target="k4sQxNacNRU6vaHa-66G-149">
          <mxGeometry relative="1" as="geometry" />
        </mxCell>
        <mxCell id="k4sQxNacNRU6vaHa-66G-147" value="Calculate `W_1` and `W_2` by Eq. (6) and Eq. (7)&lt;div&gt;Calculate `K` by Eq. (9)&lt;/div&gt;&lt;div&gt;Calculate `F` by Eq. (12)&lt;/div&gt;&lt;div&gt;Calculate `Fit^{\text{norm}}`&lt;/div&gt;" style="rounded=1;whiteSpace=wrap;html=1;fillColor=light-dark(#c8adf0, #EDEDED);fillStyle=auto;strokeColor=default;align=center;verticalAlign=middle;fontFamily=Times New Roman;fontSize=12;fontColor=default;gradientColor=#FFCCFF;gradientDirection=east;container=0;" vertex="1" parent="k4sQxNacNRU6vaHa-66G-174">
          <mxGeometry x="200" y="210" width="240" height="70" as="geometry" />
        </mxCell>
        <mxCell id="k4sQxNacNRU6vaHa-66G-148" style="edgeStyle=none;rounded=0;orthogonalLoop=1;jettySize=auto;html=1;entryX=0.5;entryY=0;entryDx=0;entryDy=0;fontFamily=Times New Roman;" edge="1" parent="k4sQxNacNRU6vaHa-66G-174" source="k4sQxNacNRU6vaHa-66G-149" target="k4sQxNacNRU6vaHa-66G-154">
          <mxGeometry relative="1" as="geometry" />
        </mxCell>
        <mxCell id="k4sQxNacNRU6vaHa-66G-149" value="Update `X_i^{\text{new}}` by Eq. (5)" style="rounded=1;whiteSpace=wrap;html=1;fillColor=light-dark(#FFCCE6,#EDEDED);gradientColor=#FFCFC5;gradientDirection=east;fontFamily=Times New Roman;container=0;" vertex="1" parent="k4sQxNacNRU6vaHa-66G-174">
          <mxGeometry x="240" y="310" width="160" height="50" as="geometry" />
        </mxCell>
        <mxCell id="k4sQxNacNRU6vaHa-66G-150" style="edgeStyle=none;rounded=0;orthogonalLoop=1;jettySize=auto;html=1;entryX=0;entryY=0.5;entryDx=0;entryDy=0;fontFamily=Times New Roman;" edge="1" parent="k4sQxNacNRU6vaHa-66G-174" source="k4sQxNacNRU6vaHa-66G-154" target="k4sQxNacNRU6vaHa-66G-156">
          <mxGeometry relative="1" as="geometry" />
        </mxCell>
        <mxCell id="k4sQxNacNRU6vaHa-66G-151" value="Yes" style="edgeLabel;html=1;align=center;verticalAlign=middle;resizable=0;points=[];fontFamily=Times New Roman;container=0;" vertex="1" connectable="0" parent="k4sQxNacNRU6vaHa-66G-150">
          <mxGeometry x="-0.2082" y="2" relative="1" as="geometry">
            <mxPoint as="offset" />
          </mxGeometry>
        </mxCell>
        <mxCell id="k4sQxNacNRU6vaHa-66G-152" style="edgeStyle=none;rounded=0;orthogonalLoop=1;jettySize=auto;html=1;fontFamily=Times New Roman;" edge="1" parent="k4sQxNacNRU6vaHa-66G-174" source="k4sQxNacNRU6vaHa-66G-154">
          <mxGeometry relative="1" as="geometry">
            <mxPoint x="320" y="470" as="targetPoint" />
          </mxGeometry>
        </mxCell>
        <mxCell id="k4sQxNacNRU6vaHa-66G-153" value="No" style="edgeLabel;html=1;align=center;verticalAlign=middle;resizable=0;points=[];fontFamily=Times New Roman;container=0;" vertex="1" connectable="0" parent="k4sQxNacNRU6vaHa-66G-152">
          <mxGeometry x="-0.1559" y="1" relative="1" as="geometry">
            <mxPoint as="offset" />
          </mxGeometry>
        </mxCell>
        <mxCell id="k4sQxNacNRU6vaHa-66G-154" value="`r_7` &amp;lt; `\theta`" style="rhombus;whiteSpace=wrap;html=1;strokeColor=default;align=center;verticalAlign=middle;fontFamily=Times New Roman;fontSize=12;fontColor=default;fillColor=light-dark(#fefee2, #ededed);gradientColor=#E8FF31;gradientDirection=east;container=0;" vertex="1" parent="k4sQxNacNRU6vaHa-66G-174">
          <mxGeometry x="242.5" y="380" width="155" height="50" as="geometry" />
        </mxCell>
        <mxCell id="k4sQxNacNRU6vaHa-66G-155" style="edgeStyle=none;rounded=0;orthogonalLoop=1;jettySize=auto;html=1;entryX=0.5;entryY=1;entryDx=0;entryDy=0;fontFamily=Times New Roman;" edge="1" parent="k4sQxNacNRU6vaHa-66G-174" source="k4sQxNacNRU6vaHa-66G-156" target="k4sQxNacNRU6vaHa-66G-167">
          <mxGeometry relative="1" as="geometry">
            <Array as="points">
              <mxPoint x="620" y="405" />
              <mxPoint x="620" y="530" />
              <mxPoint x="110" y="530" />
            </Array>
          </mxGeometry>
        </mxCell>
        <mxCell id="k4sQxNacNRU6vaHa-66G-156" value="Update `X_{i,j}^{\text{new}}` by Eq. (11)" style="rounded=1;whiteSpace=wrap;html=1;strokeColor=default;align=center;verticalAlign=middle;fontFamily=Times New Roman;fontSize=12;fontColor=default;fillColor=light-dark(#FFCCE6,#EDEDED);gradientColor=#FFCFC5;gradientDirection=east;container=0;" vertex="1" parent="k4sQxNacNRU6vaHa-66G-174">
          <mxGeometry x="450" y="380" width="160" height="50" as="geometry" />
        </mxCell>
        <mxCell id="k4sQxNacNRU6vaHa-66G-157" style="edgeStyle=none;rounded=0;orthogonalLoop=1;jettySize=auto;html=1;entryX=0;entryY=0.5;entryDx=0;entryDy=0;fontFamily=Times New Roman;" edge="1" parent="k4sQxNacNRU6vaHa-66G-174" source="k4sQxNacNRU6vaHa-66G-161" target="k4sQxNacNRU6vaHa-66G-163">
          <mxGeometry relative="1" as="geometry" />
        </mxCell>
        <mxCell id="k4sQxNacNRU6vaHa-66G-158" value="Yes" style="edgeLabel;html=1;align=center;verticalAlign=middle;resizable=0;points=[];fontFamily=Times New Roman;container=0;" vertex="1" connectable="0" parent="k4sQxNacNRU6vaHa-66G-157">
          <mxGeometry x="-0.1561" y="1" relative="1" as="geometry">
            <mxPoint as="offset" />
          </mxGeometry>
        </mxCell>
        <mxCell id="k4sQxNacNRU6vaHa-66G-159" style="edgeStyle=none;rounded=0;orthogonalLoop=1;jettySize=auto;html=1;entryX=1;entryY=0.5;entryDx=0;entryDy=0;exitX=0;exitY=0.5;exitDx=0;exitDy=0;fontFamily=Times New Roman;" edge="1" parent="k4sQxNacNRU6vaHa-66G-174" source="k4sQxNacNRU6vaHa-66G-161" target="k4sQxNacNRU6vaHa-66G-167">
          <mxGeometry relative="1" as="geometry">
            <Array as="points">
              <mxPoint x="220" y="495" />
              <mxPoint x="220" y="455" />
            </Array>
          </mxGeometry>
        </mxCell>
        <mxCell id="k4sQxNacNRU6vaHa-66G-160" value="No" style="edgeLabel;html=1;align=center;verticalAlign=middle;resizable=0;points=[];fontFamily=Times New Roman;container=0;" vertex="1" connectable="0" parent="k4sQxNacNRU6vaHa-66G-159">
          <mxGeometry x="-0.0756" relative="1" as="geometry">
            <mxPoint as="offset" />
          </mxGeometry>
        </mxCell>
        <mxCell id="k4sQxNacNRU6vaHa-66G-161" value="`r_8` &amp;lt; `Fit_i^{\text{norm}}`" style="rhombus;whiteSpace=wrap;html=1;strokeColor=default;align=center;verticalAlign=middle;fontFamily=Times New Roman;fontSize=12;fontColor=default;fillColor=light-dark(#fefee2, #ededed);gradientColor=#E8FF31;gradientDirection=east;container=0;" vertex="1" parent="k4sQxNacNRU6vaHa-66G-174">
          <mxGeometry x="243" y="470" width="155" height="50" as="geometry" />
        </mxCell>
        <mxCell id="k4sQxNacNRU6vaHa-66G-162" style="edgeStyle=none;rounded=0;orthogonalLoop=1;jettySize=auto;html=1;exitX=1;exitY=0.5;exitDx=0;exitDy=0;fontFamily=Times New Roman;" edge="1" parent="k4sQxNacNRU6vaHa-66G-174" source="k4sQxNacNRU6vaHa-66G-163">
          <mxGeometry relative="1" as="geometry">
            <mxPoint x="620" y="495" as="targetPoint" />
          </mxGeometry>
        </mxCell>
        <mxCell id="k4sQxNacNRU6vaHa-66G-163" value="Update `\beta` by Eq. (14)&lt;div&gt;Update `X_{i,j}^{\text{new}}` by Eq. (13)&lt;/div&gt;" style="rounded=1;whiteSpace=wrap;html=1;strokeColor=default;align=center;verticalAlign=middle;fontFamily=Times New Roman;fontSize=12;fontColor=default;fillColor=light-dark(#FFCCE6,#EDEDED);gradientColor=#FFCFC5;gradientDirection=east;container=0;" vertex="1" parent="k4sQxNacNRU6vaHa-66G-174">
          <mxGeometry x="450" y="470" width="160" height="50" as="geometry" />
        </mxCell>
        <mxCell id="k4sQxNacNRU6vaHa-66G-164" value="Target Refinement" style="text;html=1;align=center;verticalAlign=middle;resizable=0;points=[];autosize=1;strokeColor=none;fillColor=none;fontFamily=Times New Roman;container=0;" vertex="1" parent="k4sQxNacNRU6vaHa-66G-174">
          <mxGeometry x="475" y="350" width="110" height="30" as="geometry" />
        </mxCell>
        <mxCell id="k4sQxNacNRU6vaHa-66G-165" value="Early diversification" style="text;html=1;align=center;verticalAlign=middle;resizable=0;points=[];autosize=1;strokeColor=none;fillColor=none;fontFamily=Times New Roman;container=0;" vertex="1" parent="k4sQxNacNRU6vaHa-66G-174">
          <mxGeometry x="475" y="440" width="120" height="30" as="geometry" />
        </mxCell>
        <mxCell id="k4sQxNacNRU6vaHa-66G-166" style="edgeStyle=none;rounded=0;orthogonalLoop=1;jettySize=auto;html=1;entryX=0;entryY=0.5;entryDx=0;entryDy=0;fontFamily=Times New Roman;" edge="1" parent="k4sQxNacNRU6vaHa-66G-174" source="k4sQxNacNRU6vaHa-66G-167" target="k4sQxNacNRU6vaHa-66G-145">
          <mxGeometry relative="1" as="geometry">
            <Array as="points">
              <mxPoint x="110" y="153" />
            </Array>
          </mxGeometry>
        </mxCell>
        <mxCell id="k4sQxNacNRU6vaHa-66G-167" value="Boundary control of `X_i^{\text{new}}`&lt;div&gt;Calculate `Fit^{\text{new}}`&lt;/div&gt;&lt;div&gt;Greedy selection&lt;/div&gt;&lt;div&gt;Update `X_b`&lt;/div&gt;&lt;div&gt;Update `FEs`&lt;/div&gt;" style="rounded=1;whiteSpace=wrap;html=1;fillColor=light-dark(#c8adf0, #EDEDED);fillStyle=auto;strokeColor=default;align=center;verticalAlign=middle;fontFamily=Times New Roman;fontSize=12;fontColor=default;gradientColor=#FFCCFF;gradientDirection=east;container=0;" vertex="1" parent="k4sQxNacNRU6vaHa-66G-174">
          <mxGeometry x="30" y="415" width="160" height="80" as="geometry" />
        </mxCell>
        <mxCell id="k4sQxNacNRU6vaHa-66G-168" style="edgeStyle=none;rounded=0;orthogonalLoop=1;jettySize=auto;html=1;entryX=0.5;entryY=0;entryDx=0;entryDy=0;fontFamily=Times New Roman;" edge="1" parent="k4sQxNacNRU6vaHa-66G-174" source="k4sQxNacNRU6vaHa-66G-169" target="k4sQxNacNRU6vaHa-66G-170">
          <mxGeometry relative="1" as="geometry" />
        </mxCell>
        <mxCell id="k4sQxNacNRU6vaHa-66G-169" value="Reture `X_b`" style="rounded=1;whiteSpace=wrap;html=1;fillColor=light-dark(#d7cab7, #ededed);gradientColor=#FFFFCC;gradientDirection=east;fontFamily=Times New Roman;container=0;" vertex="1" parent="k4sQxNacNRU6vaHa-66G-174">
          <mxGeometry x="240.5" y="550" width="160" height="50" as="geometry" />
        </mxCell>
        <mxCell id="k4sQxNacNRU6vaHa-66G-170" value="End" style="ellipse;whiteSpace=wrap;html=1;strokeColor=default;align=center;verticalAlign=middle;fontFamily=Times New Roman;fontSize=12;fontColor=default;fillColor=light-dark(#d4cbbf, #ededed);container=0;" vertex="1" parent="k4sQxNacNRU6vaHa-66G-174">
          <mxGeometry x="285" y="630" width="70" height="30" as="geometry" />
        </mxCell>
      </root>
    </mxGraphModel>
  </diagram>
</mxfile>
